<?xml version="1.0" encoding="UTF-8" standalone="no"?>
<!DOCTYPE svg PUBLIC "-//W3C//DTD SVG 1.1//EN" "http://www.w3.org/Graphics/SVG/1.1/DTD/svg11.dtd">
<svg width="100%" height="100%" viewBox="0 0 1133 1002" version="1.1" xmlns="http://www.w3.org/2000/svg" xmlns:xlink="http://www.w3.org/1999/xlink" xml:space="preserve" xmlns:serif="http://www.serif.com/" style="fill-rule:evenodd;clip-rule:evenodd;stroke-linecap:round;stroke-linejoin:round;stroke-miterlimit:1.5;">
    <g transform="matrix(1,0,0,1,-338.908,-332.719)">
        <rect id="Artboard1" x="338.908" y="332.719" width="1132.43" height="1001.55" style="fill:none;"/>
        <g id="Artboard11" serif:id="Artboard1">
            <g transform="matrix(1,0,0,1.05022,-3.35621,-103.787)">
                <path d="M674.881,1337.11L1342.14,1337.11L1342.14,637.798L642.834,637.798L642.095,1298.39L674.881,1337.11Z" style="fill:rgb(48,44,44);stroke:black;stroke-width:3.86px;"/>
            </g>
            <g transform="matrix(1,0,0,1,-650.891,25.0526)">
                <path d="M1914.71,1072.76C1914.71,1066.4 1909.55,1061.24 1903.19,1061.24L1507.68,1061.24C1501.33,1061.24 1496.16,1066.4 1496.16,1072.76L1496.16,1264.24C1496.16,1270.6 1501.33,1275.76 1507.68,1275.76L1903.19,1275.76C1909.55,1275.76 1914.71,1270.6 1914.71,1264.24L1914.71,1072.76Z" style="fill:rgb(48,44,44);stroke:black;stroke-width:3.96px;"/>
            </g>
            <g transform="matrix(1.0973,0,0,1.02858,-821,279.958)">
                <path d="M1799.59,793.41C1799.59,788.038 1795.5,783.677 1790.47,783.677L1500.95,783.677C1495.91,783.677 1491.82,788.038 1491.82,793.41L1491.82,982.114C1491.82,987.486 1495.91,991.848 1500.95,991.848L1790.47,991.848C1795.5,991.848 1799.59,987.486 1799.59,982.114L1799.59,793.41Z" style="fill:rgb(60,60,60);stroke:black;stroke-width:3.72px;"/>
            </g>
            <g transform="matrix(1,0,0,1,-705.125,297.207)">
                <rect x="1562.19" y="799.596" width="85.787" height="189.908" style="fill:rgb(48,44,44);stroke:black;stroke-width:3.96px;"/>
            </g>
            <g transform="matrix(1.08588,0,0,1.65876,-892.468,-376.225)">
                <path d="M1982.99,568.037L1490.77,568.037L1490.77,806.038C1490.77,810.209 1493.3,814.209 1497.8,817.158C1502.31,820.108 1508.42,821.765 1514.79,821.765L1959.46,821.765C1972.46,821.765 1982.99,814.868 1982.99,806.36L1982.99,568.037Z" style="fill:white;stroke:black;stroke-width:2.97px;"/>
            </g>
            <g transform="matrix(1,0,0,1,-766.021,10.431)">
                <rect x="1432.12" y="593.016" width="32.468" height="31.788" style="fill:white;stroke:black;stroke-width:4.17px;"/>
            </g>
            <g transform="matrix(1,0,0,1,-146.49,8.18044)">
                <rect x="1432.12" y="593.016" width="32.468" height="31.788" style="fill:rgb(76,76,76);stroke:black;stroke-width:4.17px;"/>
            </g>
            <g transform="matrix(1,0,0,1,0.90841,0.719145)">
                <g transform="matrix(58.3333,0,0,58.3333,903.053,432.444)">
                </g>
                <text x="643.743px" y="432.444px" style="font-family:'LiberationSans', 'Liberation Sans', sans-serif;font-size:58.333px;">HD HOLE</text>
            </g>
            <g transform="matrix(1,0,0,1,0.90841,0.719145)">
                <g transform="matrix(1,-0,-0,1,338,332)">
                    <path d="M380.861,199.668L358.911,216.972L358.238,189.029L380.861,199.668Z"/>
                    <path d="M406.13,119.33C405.406,118.607 380.823,170.446 367.422,198.873" style="fill:none;stroke:black;stroke-width:8.33px;"/>
                </g>
            </g>
            <g transform="matrix(1,0,0,1,50.912,-7.19012)">
                <path d="M504.394,593.003C503.803,591.842 493.27,585.013 494.395,583.868C496.235,581.997 501.814,581.907 504.207,581.102C505.623,580.626 510.041,579.987 508.547,579.987C505.663,579.987 495.788,575.557 493.904,573.673C493.052,572.821 502.819,567.238 503.258,566.792C504.181,565.852 507.915,564.678 506.598,564.678C486.753,564.678 467.914,575.589 448.101,579.876C442.326,581.126 436.331,584.187 430.953,586.262C430.267,586.527 428.851,586.151 428.838,586.886C428.825,587.651 430.331,587.302 431.096,587.302C437.177,587.302 443.699,588.841 449.713,589.839C468.313,592.925 486.064,595.254 505.042,595.254C508.082,595.254 524.289,594.575 526.215,596.501C526.603,596.889 525.189,598.348 524.946,598.587C520.975,602.491 515.104,604.313 510.02,606.811C509.846,606.897 508.543,607.482 508.54,607.643C508.498,610.05 520.808,609.604 521.986,610.782C523.676,612.472 511.544,622.106 510.762,623.644C510.696,623.774 510.253,624.225 510.339,624.268C511.194,624.691 523.768,623.048 524.373,624.268C527.59,630.758 509.627,637.138 509.572,640.33C509.558,641.136 522.853,648.992 522.026,649.805C518.748,653.027 507.803,652.347 503.663,651.439C485.4,647.434 466.149,644.368 447.391,639.979C442.818,638.909 430.861,638.515 427.505,635.159C426.445,634.099 428.686,624.052 429.157,622.135C431.916,610.908 427.032,599.191 427.032,588.52" style="fill:none;stroke:black;stroke-width:4.17px;"/>
            </g>
            <g transform="matrix(1,0,0,1,-4.89721,24.3645)">
                <g transform="matrix(58.3333,0,0,58.3333,574.352,718.709)">
                </g>
                <text x="426.326px" y="718.709px" style="font-family:'LiberationSans', 'Liberation Sans', sans-serif;font-size:58.333px;">T<tspan x="457.629px 496.537px " y="718.709px 718.709px ">AP</tspan>E</text>
            </g>
            <g transform="matrix(1.048,-0.105585,-0.105585,1.23225,45.476,-97.3157)">
                <g transform="matrix(0.962507,0.082472,0.082472,0.818587,317.897,376.221)">
                    <path d="M145.268,325.73L166.993,308.145L168.026,336.076L145.268,325.73Z"/>
                    <path d="M143.305,360.251C143.305,360.251 151.884,341.38 158.716,326.351" style="fill:none;stroke:black;stroke-width:8.33px;"/>
                </g>
            </g>
        </g>
    </g>
</svg>
