<?xml version="1.0" encoding="UTF-8" standalone="no"?>
<!DOCTYPE svg PUBLIC "-//W3C//DTD SVG 1.1//EN" "http://www.w3.org/Graphics/SVG/1.1/DTD/svg11.dtd">
<svg width="100%" height="100%" viewBox="0 0 491 314" version="1.1" xmlns="http://www.w3.org/2000/svg" xmlns:xlink="http://www.w3.org/1999/xlink" xml:space="preserve" xmlns:serif="http://www.serif.com/" style="fill-rule:evenodd;clip-rule:evenodd;stroke-linecap:round;stroke-linejoin:round;">
    <g transform="matrix(1.12966,0,0,1,96.4315,-557.91)">
        <rect id="Artboard1" x="-85.363" y="557.91" width="433.855" height="313.887" style="fill:none;"/>
        <clipPath id="_clip1">
            <rect id="Artboard11" serif:id="Artboard1" x="-85.363" y="557.91" width="433.855" height="313.887"/>
        </clipPath>
        <g clip-path="url(#_clip1)">
            <g id="strokes" transform="matrix(0.885222,0,0,1,40.563,540.91)">
                <path id="path100" d="M502.797,423.683L176.876,423.683L176.528,423.656L176.434,423.648L176.198,423.592L176.004,423.545L175.945,423.525L175.866,423.491L175.541,423.35L175.527,423.344L175.119,423.081L174.962,422.939L174.786,422.779L174.752,422.736L174.538,422.467L174.507,422.429L174.475,422.38L174.359,422.164L174.251,421.963L174.207,421.834L174.1,421.522L174.093,421.482L174.052,421.246L174.029,421.117L174.021,421.07L174.01,420.818L174.01,420.609L174.009,413.192L174.009,412.443L174.008,406.007L174.009,396.007L174.01,391.196L173.986,390.911L173.971,390.731L173.924,390.546L173.856,390.279L173.837,390.223L173.822,390.189L173.67,389.857L173.643,389.798L173.483,389.557L173.392,389.419L173.344,389.36L173.273,389.287L173.055,389.064L173.032,389.04L172.774,388.848L172.675,388.775L172.579,388.717L172.47,388.665L172.17,388.522L172.15,388.516L171.819,388.417L171.743,388.395L171.689,388.383L171.489,388.359L171.262,388.332L171.144,388.33L67.693,388.33L67.346,388.302L67.252,388.295L67.016,388.238L66.821,388.191L66.762,388.172L66.684,388.138L66.359,387.996L66.345,387.99L66.057,387.805L65.937,387.728L65.78,387.585L65.604,387.425L65.569,387.381L65.355,387.113L65.325,387.075L65.293,387.026L65.176,386.809L65.069,386.609L65.025,386.48L64.918,386.168L64.91,386.128L64.847,385.762L64.839,385.716L64.828,385.464L64.827,375.464L64.827,355.464L64.826,345.464L64.826,336.971L64.828,316.971L64.828,316.408L64.859,316.041L64.867,315.943L64.93,315.694L64.982,315.491L65.001,315.434L65.041,315.347L65.195,315.01L65.4,314.702L65.447,314.631L65.495,314.571L65.635,314.428L65.791,314.269L65.807,314.251L66.063,314.062L66.164,313.987L66.26,313.93L66.361,313.881L66.669,313.735L66.683,313.731L67.026,313.628L67.096,313.607L67.15,313.596L67.374,313.569L67.577,313.545L67.694,313.543L71.06,313.543L71.41,313.515L71.502,313.508L71.756,313.447L71.932,313.404L71.989,313.385L72.095,313.34L72.407,313.204L72.419,313.196L72.712,313.008L72.814,312.943L72.978,312.794L73.118,312.668L73.147,312.641L73.349,312.388L73.426,312.292L73.459,312.243L73.548,312.077L73.683,311.826L73.711,311.744L73.831,311.396L73.835,311.385L73.895,311.045L73.914,310.933L73.926,310.677L73.926,245.701L73.965,245.236L74.014,245.042L74.079,244.784L74.099,244.727L74.269,244.355L74.293,244.303L74.465,244.043L74.544,243.924L74.593,243.864L74.694,243.761L74.905,243.544L74.937,243.521L75.213,243.316L75.261,243.28L75.357,243.222L75.519,243.145L75.767,243.027L75.845,243.004L76.187,242.902L76.193,242.9L76.248,242.889L76.538,242.854L76.674,242.838L76.792,242.835L657.393,242.835L657.741,242.863L657.834,242.87L658.071,242.927L658.265,242.973L658.324,242.993L658.402,243.027L658.727,243.169L658.742,243.175L659.029,243.36L659.149,243.437L659.306,243.58L659.483,243.74L659.548,243.821L659.761,244.089L659.762,244.091L659.794,244.138L659.934,244.401L660.017,244.555L660.079,244.735L660.169,244.996L660.185,245.089L660.247,245.449L660.248,245.454L660.259,245.701L660.261,265.701L660.261,275.701L660.262,285.701L660.263,294.193L660.261,314.193L660.261,314.757L660.23,315.124L660.222,315.222L660.159,315.471L660.108,315.674L660.088,315.731L660.048,315.818L659.894,316.155L659.689,316.463L659.643,316.534L659.594,316.594L659.454,316.737L659.299,316.896L659.282,316.913L659.026,317.103L658.925,317.178L658.829,317.235L658.729,317.283L658.42,317.43L658.407,317.434L658.064,317.537L657.993,317.558L657.939,317.569L657.715,317.596L657.512,317.62L657.395,317.622L654.029,317.622L653.68,317.65L653.588,317.657L653.334,317.718L653.157,317.76L653.1,317.78L652.995,317.825L652.682,317.961L652.671,317.968L652.378,318.156L652.276,318.222L652.112,318.37L651.971,318.498L651.942,318.524L651.74,318.777L651.663,318.873L651.63,318.922L651.541,319.088L651.406,319.339L651.378,319.421L651.258,319.769L651.254,319.779L651.194,320.121L651.175,320.232L651.163,320.488L651.164,330.488L651.164,335.3L651.163,345.3L651.163,350.111L651.132,350.477L651.124,350.575L651.061,350.825L651.01,351.027L650.99,351.084L650.95,351.172L650.796,351.509L650.592,351.817L650.545,351.887L650.496,351.947L650.356,352.091L650.201,352.25L650.184,352.267L649.928,352.457L649.828,352.531L649.732,352.589L649.63,352.637L649.322,352.784L649.308,352.788L648.966,352.89L648.896,352.911L648.841,352.923L648.617,352.949L648.415,352.974L648.297,352.976L617.635,352.976L617.286,353.004L617.194,353.011L616.94,353.072L616.763,353.114L616.706,353.133L616.602,353.179L616.288,353.315L616.277,353.322L615.984,353.51L615.882,353.576L615.718,353.724L615.577,353.852L615.548,353.878L615.346,354.131L615.269,354.227L615.237,354.276L615.147,354.442L615.013,354.693L614.984,354.775L614.864,355.123L614.86,355.133L614.801,355.474L614.781,355.586L614.769,355.842L614.77,365.842L614.77,368.613L614.769,378.613L614.769,381.384L614.793,381.669L614.808,381.849L614.855,382.035L614.922,382.301L614.942,382.357L614.957,382.391L615.109,382.724L615.135,382.782L615.296,383.024L615.387,383.161L615.435,383.22L615.507,383.293L615.723,383.516L615.747,383.54L616.005,383.731L616.104,383.805L616.199,383.862L616.309,383.914L616.609,384.057L616.628,384.063L616.96,384.162L617.035,384.185L617.089,384.196L617.29,384.22L617.516,384.248L617.635,384.25L648.296,384.25L648.644,384.278L648.738,384.285L648.974,384.342L649.168,384.388L649.227,384.408L649.305,384.442L649.63,384.583L649.645,384.59L649.932,384.774L650.052,384.852L650.209,384.994L650.385,385.154L650.42,385.198L650.634,385.466L650.664,385.504L650.697,385.553L650.813,385.77L650.92,385.97L650.965,386.099L651.072,386.411L651.079,386.451L651.142,386.816L651.15,386.863L651.162,387.114L651.164,397.114L651.165,403.967L651.164,413.967L651.163,420.818L651.156,420.894L651.132,421.185L651.124,421.283L651.061,421.532L651.033,421.642L651.01,421.735L650.99,421.792L650.95,421.879L650.796,422.216L650.591,422.524L650.545,422.595L650.496,422.655L650.359,422.795L650.356,422.798L650.184,422.974L650.128,423.016L649.851,423.221L649.827,423.239L649.731,423.296L649.542,423.387L649.355,423.475L649.322,423.491L649.214,423.524L648.895,423.619L648.871,423.624L648.841,423.63L648.52,423.668L648.414,423.681L648.297,423.683L540.815,423.683L540.468,423.656L540.374,423.648L540.137,423.592L539.943,423.545L539.884,423.525L539.806,423.491L539.769,423.475L539.481,423.35L539.466,423.344L539.179,423.159L539.059,423.081L538.902,422.939L538.744,422.795L538.726,422.779L538.691,422.735L538.477,422.467L538.447,422.429L538.415,422.38L538.298,422.163L538.191,421.963L538.146,421.833L538.081,421.642L538.039,421.522L538.032,421.481L537.969,421.116L537.961,421.07L537.953,420.894L537.95,420.818L537.949,410.818L537.948,403.967L537.949,393.967L537.949,391.196L537.911,390.727L537.904,390.698L537.799,390.278L537.78,390.221L537.589,389.8L537.565,389.764L537.339,389.423L537.286,389.357L536.971,389.034L536.929,389.003L536.616,388.769L536.533,388.719L536.135,388.526L536.072,388.506L535.718,388.398L535.633,388.381L535.592,388.376L535.2,388.332L535.096,388.33L508.516,388.33L508.076,388.364L508.021,388.377L507.652,388.464L507.594,388.483L507.184,388.661L507.093,388.719L506.775,388.924L506.438,389.23L506.337,389.358L506.141,389.606L505.916,390.014L505.845,390.218L505.754,390.476L505.716,390.699L505.675,390.937L505.663,391.195L505.664,401.195L505.665,403.968L505.664,412.451L505.664,413.2L505.663,420.818L505.632,421.185L505.624,421.283L505.561,421.533L505.51,421.735L505.49,421.792L505.45,421.88L505.369,422.056L505.296,422.216L505.296,422.217L505.091,422.525L505.045,422.595L504.996,422.655L504.856,422.799L504.701,422.957L504.684,422.975L504.429,423.164L504.327,423.239L504.231,423.297L504.131,423.344L503.822,423.491L503.809,423.495L503.466,423.598L503.395,423.619L503.341,423.63L503.117,423.657L502.914,423.681L502.797,423.683" style="fill:none;fill-rule:nonzero;stroke:black;stroke-width:2px;"/>
                <path id="path110" d="M40.572,62.651L40.515,62.781L40.502,62.819L40.431,63.11L40.431,63.114L40.407,63.413L40.407,458.918L40.411,459.037L40.458,459.413L40.528,459.704L40.644,459.979L40.8,460.234L40.995,460.46L41.223,460.654L41.478,460.81L41.755,460.924L42.046,460.993L42.344,461.016L52.344,461.013L55.653,461.012" style="fill:none;fill-rule:nonzero;stroke:black;stroke-width:2px;"/>
                <path id="path116" d="M902.161,461.006L912.161,461.007L917.279,461.007L917.577,460.984L917.868,460.915L918.145,460.801L918.4,460.645L918.628,460.452L918.822,460.225L918.979,459.971L919.094,459.696L919.165,459.405L919.189,459.215L919.189,459.211L919.213,458.918L919.213,63.413L919.209,63.291L919.184,63.115L919.167,62.994L919.157,62.954L919.063,62.67L919,62.548L918.923,62.4L918.901,62.366L918.718,62.129L918.65,62.066L918.496,61.921L918.464,61.896L918.213,61.733L918.169,61.714L917.935,61.61L917.897,61.597L917.606,61.527L917.601,61.526L917.302,61.502L42.318,61.502" style="fill:none;fill-rule:nonzero;stroke:black;stroke-width:2px;"/>
                <path id="path118" d="M40.627,162.756L40.695,162.885L40.729,162.896L40.819,162.906L40.962,162.916L41.153,162.925L41.388,162.933L41.659,162.939L41.958,162.944L42.277,162.946L42.605,162.947L917.016,162.947L917.344,162.946L917.662,162.944L917.961,162.939L918.232,162.933L918.467,162.925L918.659,162.916L918.802,162.906L918.892,162.896L918.926,162.885L918.993,162.756" style="fill:none;fill-rule:nonzero;stroke:black;stroke-width:2px;"/>
                <path id="path120" d="M918.993,157.598L918.993,162.756L40.627,162.756L40.627,157.598" style="fill:none;fill-rule:nonzero;stroke:black;stroke-width:2px;"/>
                <path id="path122" d="M918.993,157.598L40.627,157.598L40.695,157.469L40.729,157.459L40.819,157.448L40.962,157.438L41.153,157.429L41.388,157.422L41.659,157.415L41.958,157.411L42.277,157.408L42.605,157.407L917.016,157.407L917.344,157.408L917.662,157.411L917.961,157.415L918.232,157.422L918.467,157.429L918.659,157.438L918.802,157.448L918.892,157.459L918.926,157.469L918.993,157.598" style="fill:none;fill-rule:nonzero;stroke:black;stroke-width:2px;"/>
                <path id="path124" d="M76.759,231.233L111.518,231.233L111.808,231.218L111.89,231.209L111.995,231.187L112.315,231.119L112.458,231.065L112.729,230.963L112.815,230.921L113.19,230.691L113.292,230.604L113.532,230.399L113.592,230.337L113.874,229.986L113.928,229.892L114.101,229.586L114.126,229.533L114.278,229.098L114.294,229.008L114.359,228.636L114.345,228.531L114.351,228.347L114.351,194.665L114.34,194.413L114.332,194.367L114.268,194.002L114.261,193.96L114.154,193.65L114.109,193.52L114.003,193.321L113.886,193.103L113.853,193.054L113.824,193.017L113.575,192.704L113.398,192.544L113.241,192.402L113.121,192.324L112.834,192.139L112.82,192.133L112.494,191.992L112.416,191.957L112.357,191.938L112.163,191.891L111.927,191.835L111.833,191.827L111.485,191.8L76.792,191.8L76.674,191.802L76.473,191.826L76.247,191.853L76.193,191.864L76.124,191.885L75.781,191.988L75.767,191.992L75.459,192.138L75.357,192.187L75.261,192.244L75.162,192.318L74.905,192.509L74.889,192.525L74.733,192.685L74.593,192.829L74.544,192.889L74.497,192.959L74.293,193.267L74.139,193.604L74.099,193.692L74.079,193.748L74.028,193.951L73.965,194.2L73.957,194.299L73.926,194.665L73.926,228.347L73.932,228.531L73.918,228.636L73.98,229.008L73.985,229.042L74.127,229.466L74.143,229.513L74.363,229.925L74.398,229.978L74.636,230.276L74.68,230.331L75.018,230.639L75.089,230.692L75.382,230.871L75.466,230.923L75.512,230.946L75.919,231.106L76.282,231.188L76.352,231.204L76.759,231.233L42.57,231.233L42.406,231.232L42.242,231.23L41.924,231.223L41.625,231.211L41.354,231.194L41.119,231.174L40.927,231.151L40.784,231.124L40.694,231.096L40.66,231.068L40.68,231.169L40.715,231.198L40.805,231.225L40.948,231.252L41.139,231.275L41.374,231.296L41.645,231.312L41.944,231.324L42.263,231.332L42.591,231.334L917.03,231.334L917.358,231.332L917.676,231.324L917.975,231.312L918.246,231.296L918.481,231.275L918.673,231.252L918.816,231.225L918.906,231.198L918.94,231.169L918.96,231.068L918.926,231.096L918.836,231.124L918.693,231.151L918.502,231.174L918.267,231.194L917.996,231.211L917.697,231.223L917.378,231.23L917.215,231.232L917.05,231.233L657.428,231.233L657.765,231.213L657.84,231.203L657.906,231.188L658.264,231.108L658.369,231.067L658.675,230.946L658.726,230.921L659.101,230.69L659.202,230.604L659.442,230.399L659.589,230.241L659.842,229.894L659.856,229.875L659.898,229.806L660.094,229.392L660.206,229.008L660.224,228.944L660.27,228.636L660.256,228.531L660.261,228.347L660.261,194.665L660.25,194.413L660.242,194.367L660.179,194.002L660.172,193.96L660.065,193.65L660.02,193.52L659.913,193.321L659.796,193.103L659.764,193.054L659.734,193.017L659.521,192.748L659.485,192.704L659.309,192.544L659.152,192.402L659.031,192.324L658.745,192.139L658.73,192.133L658.405,191.992L658.327,191.957L658.268,191.938L658.073,191.891L657.837,191.835L657.743,191.827L657.396,191.8L513.52,191.8L513.403,191.802L513.201,191.826L512.976,191.853L512.922,191.864L512.852,191.885L512.51,191.988L512.495,191.992L512.188,192.138L512.086,192.187L511.99,192.244L511.89,192.318L511.633,192.509L511.617,192.525L511.461,192.685L511.321,192.829L511.272,192.889L511.226,192.959L511.021,193.267L510.867,193.604L510.827,193.692L510.808,193.748L510.756,193.951L510.693,194.2L510.685,194.299L510.654,194.665L510.654,228.347L510.66,228.531L510.646,228.636L510.711,229.008L510.725,229.086L510.858,229.465L510.887,229.548L511.112,229.956L511.364,230.276L511.409,230.332L511.746,230.639L512.109,230.873L512.155,230.902L512.565,231.08L512.623,231.099L513.01,231.19L513.047,231.199L513.487,231.233L657.428,231.233" style="fill:none;fill-rule:nonzero;stroke:black;stroke-width:2px;"/>
                <path id="path126" d="M149.547,231.233L293.488,231.233L293.86,231.209L293.965,231.187L294.285,231.119L294.428,231.065L294.699,230.963L294.785,230.921L295.16,230.691L295.262,230.604L295.502,230.399L295.562,230.337L295.844,229.986L295.898,229.892L296.072,229.586L296.096,229.533L296.248,229.098L296.264,229.008L296.329,228.636L296.315,228.531L296.321,228.347L296.321,194.665L296.31,194.413L296.302,194.367L296.239,194.002L296.231,193.96L296.125,193.65L296.08,193.52L295.973,193.321L295.856,193.103L295.824,193.054L295.794,193.017L295.545,192.704L295.369,192.544L295.212,192.402L294.804,192.139L294.79,192.133L294.465,191.992L294.386,191.957L294.327,191.938L294.133,191.891L293.897,191.835L293.803,191.827L293.456,191.8L149.58,191.8L149.462,191.802L149.261,191.826L149.036,191.853L148.981,191.864L148.912,191.885L148.569,191.988L148.555,191.992L148.248,192.138L148.145,192.187L148.049,192.244L147.95,192.318L147.693,192.509L147.677,192.525L147.521,192.685L147.381,192.829L147.332,192.889L147.285,192.959L147.081,193.267L146.927,193.604L146.887,193.692L146.867,193.748L146.816,193.951L146.753,194.2L146.745,194.299L146.714,194.665L146.714,228.347L146.72,228.531L146.706,228.636L146.771,229.008L146.785,229.086L146.917,229.465L146.946,229.548L147.171,229.956L147.424,230.276L147.469,230.332L147.806,230.639L148.169,230.873L148.214,230.902L148.624,231.08L148.683,231.099L149.07,231.19L149.107,231.199L149.547,231.233L111.518,231.233" style="fill:none;fill-rule:nonzero;stroke:black;stroke-width:2px;"/>
                <path id="path128" d="M331.517,231.233L475.458,231.233L475.748,231.218L475.83,231.209L475.935,231.187L476.255,231.119L476.398,231.065L476.669,230.963L476.755,230.921L477.131,230.691L477.232,230.604L477.472,230.399L477.533,230.337L477.814,229.986L477.868,229.892L478.042,229.586L478.066,229.533L478.218,229.098L478.234,229.008L478.299,228.636L478.286,228.531L478.291,228.347L478.291,194.665L478.28,194.413L478.272,194.367L478.209,194.002L478.201,193.96L478.095,193.65L478.05,193.52L477.943,193.321L477.826,193.103L477.794,193.054L477.764,193.017L477.515,192.704L477.339,192.544L477.182,192.402L476.774,192.139L476.76,192.133L476.435,191.992L476.356,191.957L476.298,191.938L476.103,191.891L475.867,191.835L475.773,191.827L475.426,191.8L331.55,191.8L331.433,191.802L331.231,191.826L331.006,191.853L330.951,191.864L330.882,191.885L330.54,191.988L330.525,191.992L330.218,192.138L330.115,192.187L330.02,192.244L329.92,192.318L329.663,192.509L329.647,192.525L329.491,192.685L329.351,192.829L329.302,192.889L329.255,192.959L329.051,193.267L328.897,193.604L328.857,193.692L328.837,193.748L328.786,193.951L328.723,194.2L328.715,194.299L328.684,194.665L328.684,228.347L328.69,228.531L328.676,228.636L328.741,229.008L328.755,229.086L328.888,229.465L328.916,229.548L329.141,229.956L329.394,230.276L329.439,230.332L329.776,230.639L330.139,230.873L330.184,230.902L330.595,231.08L330.653,231.099L331.04,231.19L331.077,231.199L331.517,231.233L293.488,231.233" style="fill:none;fill-rule:nonzero;stroke:black;stroke-width:2px;"/>
                <path id="path132" d="M40.627,118.434L40.627,113.276" style="fill:none;fill-rule:nonzero;stroke:black;stroke-width:2px;"/>
                <path id="path134" d="M918.993,151.676L918.926,151.804L918.892,151.815L918.802,151.826L918.659,151.835L918.467,151.844L918.232,151.852L917.961,151.858L917.662,151.863L917.344,151.866L917.016,151.867L42.605,151.867L42.277,151.866L41.958,151.863L41.659,151.858L41.388,151.852L41.153,151.844L40.962,151.835L40.819,151.826L40.729,151.815L40.695,151.804L40.627,151.676" style="fill:none;fill-rule:nonzero;stroke:black;stroke-width:2px;"/>
                <path id="path136" d="M46.114,151.676L40.627,151.676L40.627,146.517" style="fill:none;fill-rule:nonzero;stroke:black;stroke-width:2px;"/>
                <path id="path138" d="M40.627,96.273L40.627,91.114" style="fill:none;fill-rule:nonzero;stroke:black;stroke-width:2px;"/>
                <path id="path140" d="M918.993,96.273L918.993,91.114L40.627,91.114L40.695,90.986L40.729,90.975L40.819,90.964L40.962,90.955L41.153,90.946L41.388,90.938L41.659,90.932L41.958,90.927L42.277,90.924L42.605,90.923L917.016,90.923L917.344,90.924L917.662,90.927L917.961,90.932L918.232,90.938L918.467,90.946L918.659,90.955L918.802,90.964L918.892,90.975L918.926,90.986L918.993,91.114" style="fill:none;fill-rule:nonzero;stroke:black;stroke-width:2px;"/>
                <path id="path142" d="M40.627,102.195L40.695,102.067L40.729,102.056L40.819,102.045L40.962,102.035L41.153,102.026L41.388,102.019L41.659,102.012L41.958,102.008L42.277,102.005L42.605,102.004L917.016,102.004L917.344,102.005L917.662,102.008L917.961,102.012L918.232,102.019L918.467,102.026L918.659,102.035L918.802,102.045L918.892,102.056L918.926,102.067L918.993,102.195" style="fill:none;fill-rule:nonzero;stroke:black;stroke-width:2px;"/>
                <path id="path144" d="M40.627,124.356L40.695,124.228L40.729,124.217L40.819,124.206L40.962,124.196L41.153,124.187L41.388,124.18L41.659,124.173L41.958,124.169L42.277,124.166L42.605,124.165L917.016,124.165L917.344,124.166L917.662,124.169L917.961,124.173L918.232,124.18L918.467,124.187L918.659,124.196L918.802,124.206L918.892,124.217L918.926,124.228L918.993,124.356" style="fill:none;fill-rule:nonzero;stroke:black;stroke-width:2px;"/>
                <path id="path146" d="M913.506,96.273L918.993,96.273L918.926,96.401L918.892,96.412L918.802,96.423L918.659,96.432L918.467,96.441L918.232,96.449L917.961,96.455L917.662,96.46L917.344,96.463L917.016,96.464L42.605,96.464L42.277,96.463L41.958,96.46L41.659,96.455L41.388,96.449L41.153,96.441L40.962,96.432L40.819,96.423L40.729,96.412L40.695,96.401L40.627,96.273L46.114,96.273" style="fill:none;fill-rule:nonzero;stroke:black;stroke-width:2px;"/>
                <path id="path148" d="M40.627,107.353L40.627,102.195L918.993,102.195L918.993,107.353" style="fill:none;fill-rule:nonzero;stroke:black;stroke-width:2px;"/>
                <path id="path150" d="M913.506,107.353L918.993,107.353L918.926,107.482L918.892,107.493L918.802,107.503L918.659,107.513L918.467,107.522L918.232,107.53L917.961,107.536L917.662,107.541L917.344,107.543L917.016,107.544L42.605,107.544L42.277,107.543L41.958,107.541L41.659,107.536L41.388,107.53L41.153,107.522L40.962,107.513L40.819,107.503L40.729,107.493L40.695,107.482L40.627,107.353L46.114,107.353" style="fill:none;fill-rule:nonzero;stroke:black;stroke-width:2px;"/>
                <path id="path152" d="M918.993,118.434L918.993,113.276L40.627,113.276L40.695,113.147L40.729,113.136L40.819,113.126L40.962,113.116L41.153,113.107L41.388,113.099L41.659,113.093L41.958,113.088L42.277,113.086L42.605,113.085L917.016,113.085L917.344,113.086L917.662,113.088L917.961,113.093L918.232,113.099L918.467,113.107L918.659,113.116L918.802,113.126L918.892,113.136L918.926,113.147L918.993,113.276" style="fill:none;fill-rule:nonzero;stroke:black;stroke-width:2px;"/>
                <path id="path154" d="M913.506,151.676L918.993,151.676L918.993,146.517L40.627,146.517L40.695,146.389L40.729,146.378L40.819,146.367L40.962,146.358L41.153,146.349L41.388,146.341L41.659,146.335L41.958,146.33L42.277,146.327L42.605,146.326L917.016,146.326L917.344,146.327L917.662,146.33L917.961,146.335L918.232,146.341L918.467,146.349L918.659,146.358L918.802,146.367L918.892,146.378L918.926,146.389L918.993,146.517" style="fill:none;fill-rule:nonzero;stroke:black;stroke-width:2px;"/>
                <path id="path156" d="M918.993,140.595L918.926,140.723L918.892,140.734L918.802,140.745L918.659,140.755L918.467,140.764L918.232,140.771L917.961,140.778L917.662,140.782L917.344,140.785L917.016,140.786L42.605,140.786L42.277,140.785L41.958,140.782L41.659,140.778L41.388,140.771L41.153,140.764L40.962,140.755L40.819,140.745L40.729,140.734L40.695,140.723L40.627,140.595" style="fill:none;fill-rule:nonzero;stroke:black;stroke-width:2px;"/>
                <path id="path158" d="M46.114,140.595L40.627,140.595L40.627,135.437" style="fill:none;fill-rule:nonzero;stroke:black;stroke-width:2px;"/>
                <path id="path160" d="M913.506,118.434L918.993,118.434L918.926,118.562L918.892,118.573L918.802,118.584L918.659,118.594L918.467,118.603L918.232,118.61L917.961,118.617L917.662,118.621L917.344,118.624L917.016,118.625L42.605,118.625L42.277,118.624L41.958,118.621L41.659,118.617L41.388,118.61L41.153,118.603L40.962,118.594L40.819,118.584L40.729,118.573L40.695,118.562L40.627,118.434L46.114,118.434" style="fill:none;fill-rule:nonzero;stroke:black;stroke-width:2px;"/>
                <path id="path162" d="M40.627,129.514L40.627,124.356L918.993,124.356L918.993,129.514" style="fill:none;fill-rule:nonzero;stroke:black;stroke-width:2px;"/>
                <path id="path164" d="M913.506,129.514L918.993,129.514L918.926,129.643L918.892,129.654L918.802,129.664L918.659,129.674L918.467,129.683L918.232,129.691L917.961,129.697L917.662,129.702L917.344,129.705L42.277,129.705L41.958,129.702L41.659,129.697L41.388,129.691L41.153,129.683L40.962,129.674L40.819,129.664L40.729,129.654L40.695,129.643L40.627,129.514L46.114,129.514" style="fill:none;fill-rule:nonzero;stroke:black;stroke-width:2px;"/>
                <path id="path166" d="M913.506,140.595L918.993,140.595L918.993,135.437L40.627,135.437L40.695,135.308L40.729,135.297L40.819,135.287L40.962,135.277L41.153,135.268L41.388,135.26L41.659,135.254L41.958,135.25L42.277,135.247L42.605,135.246L917.016,135.246L917.344,135.247L917.662,135.25L917.961,135.254L918.232,135.26L918.467,135.268L918.659,135.277L918.802,135.287L918.892,135.297L918.926,135.308L918.993,135.437" style="fill:none;fill-rule:nonzero;stroke:black;stroke-width:2px;"/>
                <path id="path168" d="M656.602,173.348L917.008,173.348L917.321,173.356L917.483,173.367L917.641,173.383L917.795,173.404L917.943,173.432L918.085,173.467L918.216,173.508L918.335,173.556L918.443,173.611L918.453,173.618L918.558,173.688L918.647,173.768L918.726,173.862L918.791,173.967L918.797,173.98L918.88,174.226L918.903,174.448L918.918,174.989L918.922,175.6L918.923,176.26L918.923,176.951L918.92,177.652L918.916,178.344L918.913,178.621L918.895,179.008L918.875,179.135L918.843,179.351L918.79,179.55L918.764,179.623L918.647,179.874L918.559,180.007L918.455,180.129L918.41,180.174L918.22,180.325L918.09,180.403L917.949,180.47L917.804,180.524L917.65,180.568L917.493,180.602L917.332,180.626L917.169,180.64L917.004,180.645L42.616,180.645L42.451,180.64L42.288,180.626L42.127,180.602L41.97,180.568L41.817,180.524L41.671,180.47L41.53,180.403L41.4,180.325L41.211,180.174L41.168,180.126L41.062,180.007L40.974,179.874L40.856,179.623L40.834,179.546L40.777,179.35L40.741,179.142L40.726,179.008L40.707,178.621L40.7,177.652L40.698,176.951L40.697,176.26L40.699,175.6L40.702,174.989L40.707,174.557L40.718,174.448L40.74,174.226L40.823,173.98L40.831,173.968L40.894,173.862L40.974,173.768L41.063,173.688L41.167,173.618L41.179,173.611L41.285,173.556L41.404,173.508L41.536,173.466L41.677,173.432L41.824,173.405L41.979,173.383L42.138,173.367L42.3,173.356L42.612,173.348L80.602,173.348" style="fill:none;fill-rule:nonzero;stroke:black;stroke-width:2px;"/>
                <path id="path172" d="M46.148,96.336L46.114,96.273L115.427,96.273L115.392,96.336L46.148,96.336" style="fill:none;fill-rule:nonzero;stroke:black;stroke-width:2px;"/>
                <path id="path174" d="M46.148,118.498L46.114,118.434L115.427,118.434L115.392,118.498L46.148,118.498" style="fill:none;fill-rule:nonzero;stroke:black;stroke-width:2px;"/>
                <path id="path176" d="M46.148,129.578L46.114,129.514L115.427,129.514L115.392,129.578L46.148,129.578" style="fill:none;fill-rule:nonzero;stroke:black;stroke-width:2px;"/>
                <path id="path178" d="M46.148,107.417L46.114,107.353L115.427,107.353L115.392,107.417L46.148,107.417" style="fill:none;fill-rule:nonzero;stroke:black;stroke-width:2px;"/>
                <path id="path180" d="M46.148,140.659L46.114,140.595L115.427,140.595L115.392,140.659L46.148,140.659" style="fill:none;fill-rule:nonzero;stroke:black;stroke-width:2px;"/>
                <path id="path182" d="M46.148,151.739L46.114,151.676L115.427,151.676L115.392,151.739L46.148,151.739" style="fill:none;fill-rule:nonzero;stroke:black;stroke-width:2px;"/>
                <path id="path184" d="M42.318,61.502L42.196,61.506L42.019,61.526L41.898,61.549L41.859,61.558L41.575,61.653L41.451,61.711L41.305,61.793L41.271,61.815L41.195,61.867L41.034,61.998L40.967,62.062L40.826,62.22L40.801,62.251L40.773,62.29L40.716,62.383L40.627,62.528L40.616,62.546" style="fill:none;fill-rule:nonzero;stroke:black;stroke-width:2px;"/>
                <path id="path262" d="M405.78,96.336L336.049,96.336L336.015,96.273L405.815,96.273L405.78,96.336" style="fill:none;fill-rule:nonzero;stroke:black;stroke-width:2px;"/>
                <path id="path264" d="M405.78,107.417L336.049,107.417L336.015,107.353L405.815,107.353L405.78,107.417" style="fill:none;fill-rule:nonzero;stroke:black;stroke-width:2px;"/>
                <path id="path266" d="M405.78,118.498L336.049,118.498L336.015,118.434L405.815,118.434L405.78,118.498" style="fill:none;fill-rule:nonzero;stroke:black;stroke-width:2px;"/>
                <path id="path268" d="M405.78,129.578L336.049,129.578L336.015,129.514L405.815,129.514L405.78,129.578" style="fill:none;fill-rule:nonzero;stroke:black;stroke-width:2px;"/>
                <path id="path270" d="M405.78,140.659L336.049,140.659L336.015,140.595L405.815,140.595L405.78,140.659" style="fill:none;fill-rule:nonzero;stroke:black;stroke-width:2px;"/>
                <path id="path272" d="M405.78,151.739L336.049,151.739L336.015,151.676L405.815,151.676L405.78,151.739" style="fill:none;fill-rule:nonzero;stroke:black;stroke-width:2px;"/>
                <path id="path274" d="M333.183,96.336L263.452,96.336L263.418,96.273L333.218,96.273L333.183,96.336" style="fill:none;fill-rule:nonzero;stroke:black;stroke-width:2px;"/>
                <path id="path276" d="M333.183,107.417L263.452,107.417L263.418,107.353L333.218,107.353L333.183,107.417" style="fill:none;fill-rule:nonzero;stroke:black;stroke-width:2px;"/>
                <path id="path278" d="M333.183,118.498L263.452,118.498L263.418,118.434L333.218,118.434L333.183,118.498" style="fill:none;fill-rule:nonzero;stroke:black;stroke-width:2px;"/>
                <path id="path280" d="M333.183,129.578L263.452,129.578L263.418,129.514L333.218,129.514L333.183,129.578" style="fill:none;fill-rule:nonzero;stroke:black;stroke-width:2px;"/>
                <path id="path282" d="M333.183,140.659L263.452,140.659L263.418,140.595L333.218,140.595L333.183,140.659" style="fill:none;fill-rule:nonzero;stroke:black;stroke-width:2px;"/>
                <path id="path284" d="M333.183,151.739L263.452,151.739L263.418,151.676L333.218,151.676L333.183,151.739" style="fill:none;fill-rule:nonzero;stroke:black;stroke-width:2px;"/>
                <path id="path286" d="M260.586,96.336L190.855,96.336L190.821,96.273L260.621,96.273L260.586,96.336" style="fill:none;fill-rule:nonzero;stroke:black;stroke-width:2px;"/>
                <path id="path288" d="M260.586,107.417L190.855,107.417L190.821,107.353L260.621,107.353L260.586,107.417" style="fill:none;fill-rule:nonzero;stroke:black;stroke-width:2px;"/>
                <path id="path290" d="M260.586,118.498L190.855,118.498L190.821,118.434L260.621,118.434L260.586,118.498" style="fill:none;fill-rule:nonzero;stroke:black;stroke-width:2px;"/>
                <path id="path292" d="M260.586,129.578L190.855,129.578L190.821,129.514L260.621,129.514L260.586,129.578" style="fill:none;fill-rule:nonzero;stroke:black;stroke-width:2px;"/>
                <path id="path294" d="M260.586,140.659L190.855,140.659L190.821,140.595L260.621,140.595L260.586,140.659" style="fill:none;fill-rule:nonzero;stroke:black;stroke-width:2px;"/>
                <path id="path296" d="M260.586,151.739L190.855,151.739L190.821,151.676L260.621,151.676L260.586,151.739" style="fill:none;fill-rule:nonzero;stroke:black;stroke-width:2px;"/>
                <path id="path298" d="M183.508,96.336L118.258,96.336L118.224,96.273L188.024,96.273L187.989,96.336L183.508,96.336" style="fill:none;fill-rule:nonzero;stroke:black;stroke-width:2px;"/>
                <path id="path300" d="M183.508,107.417L118.258,107.417L118.224,107.353L188.024,107.353L187.989,107.417L183.508,107.417" style="fill:none;fill-rule:nonzero;stroke:black;stroke-width:2px;"/>
                <path id="path302" d="M183.508,118.498L118.258,118.498L118.224,118.434L188.024,118.434L187.989,118.498L183.508,118.498" style="fill:none;fill-rule:nonzero;stroke:black;stroke-width:2px;"/>
                <path id="path304" d="M183.508,129.578L118.258,129.578L118.224,129.514L188.024,129.514L187.989,129.578L183.508,129.578" style="fill:none;fill-rule:nonzero;stroke:black;stroke-width:2px;"/>
                <path id="path306" d="M183.508,140.659L118.258,140.659L118.224,140.595L188.024,140.595L187.989,140.659L183.508,140.659" style="fill:none;fill-rule:nonzero;stroke:black;stroke-width:2px;"/>
                <path id="path308" d="M183.508,151.739L118.258,151.739L118.224,151.676L188.024,151.676L187.989,151.739L183.508,151.739" style="fill:none;fill-rule:nonzero;stroke:black;stroke-width:2px;"/>
                <path id="path310" d="M118.224,151.676L115.427,151.676" style="fill:none;fill-rule:nonzero;stroke:black;stroke-width:2px;"/>
                <path id="path312" d="M263.418,151.676L260.621,151.676" style="fill:none;fill-rule:nonzero;stroke:black;stroke-width:2px;"/>
                <path id="path314" d="M190.821,151.676L188.024,151.676" style="fill:none;fill-rule:nonzero;stroke:black;stroke-width:2px;"/>
                <path id="path318" d="M336.015,151.676L333.218,151.676" style="fill:none;fill-rule:nonzero;stroke:black;stroke-width:2px;"/>
                <path id="path334" d="M118.224,140.595L115.427,140.595" style="fill:none;fill-rule:nonzero;stroke:black;stroke-width:2px;"/>
                <path id="path336" d="M190.821,140.595L188.024,140.595" style="fill:none;fill-rule:nonzero;stroke:black;stroke-width:2px;"/>
                <path id="path338" d="M263.418,140.595L260.621,140.595" style="fill:none;fill-rule:nonzero;stroke:black;stroke-width:2px;"/>
                <path id="path342" d="M336.015,140.595L333.218,140.595" style="fill:none;fill-rule:nonzero;stroke:black;stroke-width:2px;"/>
                <path id="path360" d="M118.224,129.514L115.427,129.514" style="fill:none;fill-rule:nonzero;stroke:black;stroke-width:2px;"/>
                <path id="path362" d="M190.821,129.514L188.024,129.514" style="fill:none;fill-rule:nonzero;stroke:black;stroke-width:2px;"/>
                <path id="path364" d="M263.418,129.514L260.621,129.514" style="fill:none;fill-rule:nonzero;stroke:black;stroke-width:2px;"/>
                <path id="path368" d="M336.015,129.514L333.218,129.514" style="fill:none;fill-rule:nonzero;stroke:black;stroke-width:2px;"/>
                <path id="path384" d="M118.224,118.434L115.427,118.434" style="fill:none;fill-rule:nonzero;stroke:black;stroke-width:2px;"/>
                <path id="path386" d="M190.821,118.434L188.024,118.434" style="fill:none;fill-rule:nonzero;stroke:black;stroke-width:2px;"/>
                <path id="path388" d="M263.418,118.434L260.621,118.434" style="fill:none;fill-rule:nonzero;stroke:black;stroke-width:2px;"/>
                <path id="path392" d="M336.015,118.434L333.218,118.434" style="fill:none;fill-rule:nonzero;stroke:black;stroke-width:2px;"/>
                <path id="path412" d="M118.224,107.353L115.427,107.353" style="fill:none;fill-rule:nonzero;stroke:black;stroke-width:2px;"/>
                <path id="path414" d="M190.821,107.353L188.024,107.353" style="fill:none;fill-rule:nonzero;stroke:black;stroke-width:2px;"/>
                <path id="path416" d="M263.418,107.353L260.621,107.353" style="fill:none;fill-rule:nonzero;stroke:black;stroke-width:2px;"/>
                <path id="path420" d="M336.015,107.353L333.218,107.353" style="fill:none;fill-rule:nonzero;stroke:black;stroke-width:2px;"/>
                <path id="path434" d="M118.224,96.273L115.427,96.273" style="fill:none;fill-rule:nonzero;stroke:black;stroke-width:2px;"/>
                <path id="path436" d="M190.821,96.273L188.024,96.273" style="fill:none;fill-rule:nonzero;stroke:black;stroke-width:2px;"/>
                <path id="path438" d="M263.418,96.273L260.621,96.273" style="fill:none;fill-rule:nonzero;stroke:black;stroke-width:2px;"/>
                <path id="path440" d="M336.015,96.273L333.218,96.273" style="fill:none;fill-rule:nonzero;stroke:black;stroke-width:2px;"/>
                <path id="path456" d="M73.918,228.636L42.571,228.636L42.407,228.637L42.243,228.639L42.083,228.642L41.925,228.647L41.773,228.652L41.626,228.659L41.487,228.667L41.355,228.676L41.12,228.698L40.928,228.722L40.785,228.75L40.695,228.779L40.661,228.809L40.682,228.703L40.716,228.673L40.806,228.644L40.949,228.617L41.141,228.592L41.376,228.571L41.507,228.562L41.647,228.554L41.793,228.547L41.946,228.541L42.103,228.537L42.264,228.533L42.428,228.531L73.932,228.531" style="fill:none;fill-rule:nonzero;stroke:black;stroke-width:2px;"/>
                <path id="path458" d="M146.706,228.636L114.359,228.636" style="fill:none;fill-rule:nonzero;stroke:black;stroke-width:2px;"/>
                <path id="path460" d="M328.676,228.636L296.329,228.636" style="fill:none;fill-rule:nonzero;stroke:black;stroke-width:2px;"/>
                <path id="path464" d="M146.72,228.531L114.345,228.531" style="fill:none;fill-rule:nonzero;stroke:black;stroke-width:2px;"/>
                <path id="path466" d="M328.69,228.531L296.315,228.531" style="fill:none;fill-rule:nonzero;stroke:black;stroke-width:2px;"/>
                <path id="path500" d="M83.234,173.348L106.627,173.348" style="fill:none;fill-rule:nonzero;stroke:black;stroke-width:2px;"/>
                <path id="path640" d="M109.259,173.348L627.945,173.348" style="fill:none;fill-rule:nonzero;stroke:black;stroke-width:2px;"/>
                <path id="path688" d="M42.318,61.502L72.318,61.511L82.318,61.513L102.318,61.519L112.318,61.521L132.318,61.527L142.318,61.529L162.318,61.535L172.318,61.537L192.318,61.543L202.318,61.545L222.318,61.551L232.318,61.553L252.318,61.559L262.318,61.561L282.318,61.567L292.318,61.569L322.318,61.578L332.318,61.58L352.318,61.586L362.318,61.588L382.318,61.594L392.318,61.596L412.318,61.602L422.318,61.604L442.318,61.61L452.318,61.612L472.318,61.618L482.318,61.62L502.318,61.626L512.318,61.628L532.318,61.634L542.318,61.636L572.318,61.645L582.318,61.647L602.318,61.653L612.318,61.655L632.318,61.661L642.318,61.663L662.318,61.669L672.318,61.671L692.318,61.677L702.318,61.679L722.318,61.685L732.318,61.687L752.318,61.693L762.318,61.695L782.318,61.701L792.318,61.703L812.318,61.709L822.318,61.711L852.318,61.72L862.318,61.722L882.318,61.728L892.318,61.73L902.318,61.733L917.258,61.737L907.258,61.734L897.258,61.732L877.258,61.726L867.258,61.724L837.258,61.715L827.258,61.713L807.258,61.707L797.258,61.705L777.258,61.699L767.258,61.697L747.258,61.691L737.258,61.689L717.258,61.683L707.258,61.681L687.258,61.675L677.258,61.673L657.258,61.667L647.258,61.665L627.258,61.659L617.258,61.657L587.258,61.648L577.258,61.646L557.258,61.64L547.258,61.638L527.258,61.632L517.258,61.63L497.258,61.624L487.258,61.622L467.258,61.616L457.258,61.614L437.258,61.608L427.258,61.606L407.258,61.6L397.258,61.598L377.258,61.592L367.258,61.59L347.258,61.584L337.258,61.582L307.258,61.573L297.258,61.571L277.258,61.565L267.258,61.563L247.258,61.557L237.258,61.555L217.258,61.549L207.258,61.547L187.258,61.541L177.258,61.539L157.258,61.533L147.258,61.531L127.258,61.525L117.258,61.523L97.258,61.517L87.258,61.515L57.258,61.506L42.318,61.502" style="fill:none;fill-rule:nonzero;stroke:black;stroke-width:2px;"/>
                <path id="path690" d="M85.092,177.219L85.092,175.454L85.096,175.387L85.102,175.359L85.116,175.291L85.127,175.266L85.159,175.19L85.166,175.179L85.215,175.105L85.221,175.098L85.284,175.031L85.29,175.027L85.339,174.989L85.366,174.968L85.378,174.961" style="fill:none;fill-rule:nonzero;stroke:black;stroke-width:2px;"/>
                <path id="path692" d="M85.378,174.961L85.457,174.919L85.46,174.918L85.554,174.883L85.569,174.879L85.665,174.86L85.765,174.853L104.097,174.853L104.119,174.854L104.201,174.861L104.216,174.863L104.248,174.869L104.343,174.894L104.401,174.919L104.435,174.933L104.455,174.944L104.483,174.962" style="fill:none;fill-rule:nonzero;stroke:black;stroke-width:2px;"/>
                <path id="path702" d="M104.769,178.035L104.769,178.411L104.761,178.515L104.734,178.623L104.729,178.637L104.694,178.712L104.683,178.736L104.615,178.834L104.571,178.879L104.54,178.91L104.455,178.972L104.435,178.985L104.401,179.001L104.387,179.008L104.37,179.016L104.343,179.028L104.325,179.034L104.248,179.057L104.216,179.064L104.202,179.066L104.12,179.074L104.097,179.075L85.764,179.075L85.742,179.074L85.66,179.066L85.645,179.064L85.613,179.057L85.536,179.034L85.518,179.028L85.491,179.016L85.475,179.008L85.46,179.001L85.426,178.985L85.406,178.972L85.322,178.91L85.246,178.834L85.178,178.736L85.167,178.712L85.132,178.637L85.127,178.623L85.1,178.515L85.092,178.411L85.092,178.035" style="fill:none;fill-rule:nonzero;stroke:black;stroke-width:2px;"/>
                <path id="path704" d="M85.092,178.035L85.092,177.219" style="fill:none;fill-rule:nonzero;stroke:black;stroke-width:2px;"/>
                <path id="path708" d="M104.483,174.962L104.523,174.989L104.54,175L104.57,175.028L104.615,175.068L104.683,175.157L104.694,175.179L104.729,175.247L104.734,175.26L104.76,175.355L104.761,175.359L104.769,175.454L104.769,177.219" style="fill:none;fill-rule:nonzero;stroke:black;stroke-width:2px;"/>
                <path id="path712" d="M104.769,177.219L104.769,178.035" style="fill:none;fill-rule:nonzero;stroke:black;stroke-width:2px;"/>
                <path id="path794" d="M40.716,62.383L40.638,62.503L40.616,62.546L40.572,62.651L40.501,62.823" style="fill:none;fill-rule:nonzero;stroke:black;stroke-width:2px;"/>
                <path id="path796" d="M42.019,61.526L42.318,61.502" style="fill:none;fill-rule:nonzero;stroke:black;stroke-width:2px;"/>
                <path id="path820" d="M310.811,281.055L277.801,281.055L277.719,281.06L277.646,281.065L277.555,281.086L277.488,281.101L277.474,281.106L277.385,281.14L277.324,281.174L277.266,281.205L277.254,281.214L277.183,281.269L277.137,281.316L277.103,281.352L277.089,281.373L277.048,281.433L277.039,281.446L277.016,281.496L276.996,281.54L276.991,281.553L276.974,281.624L276.967,281.649L276.964,281.688L276.959,281.751L276.959,289.738L276.958,297.92L276.959,307.92L276.959,314.09L276.961,314.151L276.971,314.218L276.98,314.277L276.983,314.285L277.003,314.35L277.008,314.364L277.031,314.41L277.055,314.46L277.062,314.472L277.101,314.523L277.119,314.547L277.144,314.572L277.188,314.613L277.22,314.638L277.247,314.654L277.3,314.686L277.365,314.712L277.391,314.722L277.428,314.731L277.493,314.746L277.504,314.748L277.619,314.757L310.992,314.757L311.036,314.755L311.118,314.745L311.154,314.74L311.183,314.732L311.248,314.713L311.307,314.685L311.34,314.67L311.367,314.654L311.418,314.615L311.441,314.598L311.467,314.571L311.507,314.53L311.531,314.498L311.549,314.468L311.58,314.416L311.607,314.349L311.618,314.321L311.627,314.285L311.642,314.219L311.643,314.214L311.653,314.09L311.653,289.738L311.652,281.751L311.648,281.688L311.646,281.662L311.641,281.631L311.621,281.559L311.614,281.536L311.596,281.496L311.571,281.443L311.564,281.433L311.542,281.396L311.523,281.373L311.475,281.314L311.419,281.263L311.392,281.239L311.379,281.229L311.357,281.215L311.289,281.172L311.274,281.163L311.214,281.137L311.152,281.11L311.138,281.106L311.12,281.1L311.057,281.086L310.971,281.066L310.893,281.061L310.811,281.055" style="fill:none;fill-rule:nonzero;stroke:black;stroke-width:2px;"/>
                <path id="path826" d="M238.023,281.055L205.012,281.055L204.931,281.06L204.858,281.065L204.767,281.086L204.7,281.101L204.686,281.106L204.597,281.14L204.536,281.174L204.478,281.205L204.466,281.214L204.395,281.269L204.349,281.316L204.315,281.352L204.301,281.373L204.26,281.433L204.251,281.446L204.228,281.496L204.208,281.54L204.203,281.553L204.186,281.624L204.179,281.649L204.176,281.688L204.171,281.751L204.171,289.738L204.17,297.92L204.171,307.92L204.171,314.09L204.173,314.151L204.183,314.218L204.192,314.277L204.195,314.285L204.215,314.35L204.22,314.364L204.243,314.41L204.267,314.46L204.274,314.472L204.313,314.523L204.331,314.547L204.356,314.572L204.4,314.613L204.432,314.638L204.459,314.654L204.512,314.686L204.577,314.712L204.603,314.722L204.64,314.731L204.705,314.746L204.716,314.748L204.831,314.757L238.204,314.757L238.248,314.755L238.33,314.745L238.366,314.74L238.395,314.732L238.46,314.713L238.519,314.685L238.552,314.67L238.579,314.654L238.63,314.615L238.653,314.598L238.679,314.571L238.718,314.53L238.743,314.498L238.761,314.468L238.792,314.416L238.819,314.349L238.83,314.321L238.839,314.285L238.854,314.219L238.855,314.214L238.865,314.09L238.865,289.738L238.864,281.751L238.86,281.688L238.858,281.662L238.853,281.631L238.833,281.559L238.826,281.536L238.808,281.496L238.783,281.443L238.776,281.433L238.753,281.396L238.735,281.373L238.687,281.314L238.631,281.263L238.604,281.239L238.591,281.229L238.569,281.215L238.5,281.172L238.486,281.163L238.426,281.137L238.364,281.11L238.35,281.106L238.332,281.1L238.269,281.086L238.183,281.066L238.105,281.061L238.023,281.055" style="fill:none;fill-rule:nonzero;stroke:black;stroke-width:2px;"/>
                <path id="path828" d="M256.276,245.701L223.154,245.701L223.08,245.705L223.052,245.706L223.005,245.715L222.93,245.73L222.915,245.732L222.856,245.753L222.803,245.771L222.784,245.782L222.715,245.818L222.691,245.831L222.651,245.86L222.599,245.899L222.591,245.908L222.539,245.961L222.519,245.982L222.511,245.991L222.493,246.019L222.452,246.079L222.452,246.08L222.423,246.143L222.407,246.177L222.401,246.192L222.398,246.207L222.382,246.272L222.376,246.293L222.373,246.336L222.368,246.399L222.368,278.756L222.373,278.791L222.381,278.857L222.383,278.878L222.395,278.923L222.41,278.974L222.444,279.048L222.455,279.074L222.462,279.086L222.477,279.107L222.516,279.162L222.519,279.167L222.562,279.211L222.589,279.239L222.611,279.257L222.624,279.268L222.668,279.295L222.707,279.321L222.726,279.329L222.788,279.356L222.801,279.362L222.826,279.37L222.852,279.376L222.918,279.391L222.934,279.394L222.984,279.398L223.05,279.403L256.379,279.403L256.445,279.398L256.501,279.394L256.512,279.391L256.603,279.37L256.641,279.355L256.703,279.33L256.704,279.33L256.723,279.32L256.762,279.295L256.806,279.267L256.817,279.257L256.868,279.212L256.881,279.201L256.914,279.162L256.917,279.159L256.952,279.107L256.973,279.077L256.986,279.048L257.014,278.987L257.016,278.983L257.026,278.955L257.034,278.923L257.049,278.857L257.052,278.845L257.057,278.791L257.062,278.725L257.062,246.399L257.057,246.336L257.056,246.315L257.053,246.293L257.048,246.272L257.031,246.207L257.028,246.192L256.986,246.094L256.977,246.079L256.965,246.058L256.937,246.019L256.902,245.972L256.823,245.893L256.783,245.861L256.78,245.859L256.714,245.818L256.683,245.798L256.645,245.782L256.574,245.751L256.568,245.749L256.545,245.741L256.499,245.731L256.425,245.714L256.415,245.711L256.349,245.706L256.276,245.701" style="fill:none;fill-rule:nonzero;stroke:black;stroke-width:2px;"/>
                <path id="path834" d="M128.873,281.055L77.63,281.055L77.549,281.06L77.479,281.065L77.467,281.068L77.386,281.086L77.322,281.1L77.305,281.106L77.228,281.136L77.218,281.139L77.156,281.174L77.1,281.204L77.086,281.214L77.024,281.262L77.016,281.268L76.97,281.316L76.936,281.351L76.872,281.445L76.849,281.496L76.829,281.539L76.824,281.553L76.807,281.624L76.8,281.649L76.797,281.688L76.792,281.751L76.792,289.738L76.791,297.919L76.792,307.919L76.792,314.088L76.794,314.15L76.804,314.216L76.814,314.277L76.816,314.284L76.836,314.348L76.842,314.364L76.864,314.409L76.889,314.46L76.896,314.472L76.934,314.522L76.953,314.548L76.977,314.571L77.022,314.614L77.054,314.638L77.08,314.653L77.134,314.686L77.198,314.712L77.225,314.722L77.262,314.731L77.326,314.746L77.337,314.748L77.453,314.757L129.05,314.757L129.093,314.756L129.176,314.745L129.21,314.74L129.241,314.731L129.304,314.713L129.365,314.685L129.397,314.671L129.425,314.654L129.477,314.615L129.499,314.598L129.525,314.571L129.564,314.531L129.589,314.498L129.607,314.467L129.638,314.415L129.666,314.347L129.677,314.321L129.685,314.283L129.702,314.213L129.711,314.088L129.711,304.088L129.712,297.919L129.711,289.738L129.711,281.751L129.706,281.688L129.704,281.661L129.699,281.631L129.679,281.56L129.672,281.535L129.654,281.496L129.629,281.442L129.6,281.395L129.582,281.373L129.534,281.313L129.478,281.263L129.451,281.238L129.437,281.228L129.416,281.215L129.348,281.172L129.332,281.162L129.274,281.137L129.211,281.11L129.198,281.106L129.179,281.1L129.117,281.086L129.036,281.067L129.032,281.066L128.954,281.061L128.873,281.055" style="fill:none;fill-rule:nonzero;stroke:black;stroke-width:2px;"/>
                <path id="path864" d="M110.7,245.701L77.578,245.701L77.504,245.705L77.476,245.706L77.429,245.715L77.354,245.73L77.339,245.732L77.28,245.753L77.227,245.771L77.208,245.782L77.139,245.818L77.114,245.831L77.075,245.86L77.023,245.899L77.015,245.908L76.963,245.961L76.943,245.982L76.935,245.991L76.917,246.019L76.876,246.079L76.876,246.08L76.846,246.143L76.831,246.177L76.825,246.192L76.822,246.207L76.806,246.272L76.8,246.293L76.797,246.336L76.792,246.399L76.792,278.756L76.797,278.791L76.804,278.857L76.807,278.878L76.819,278.923L76.834,278.974L76.839,278.987L76.867,279.048L76.879,279.074L76.886,279.086L76.901,279.107L76.939,279.162L76.943,279.167L76.986,279.211L77.013,279.239L77.035,279.257L77.048,279.268L77.091,279.295L77.131,279.321L77.15,279.329L77.212,279.356L77.225,279.362L77.25,279.37L77.276,279.376L77.342,279.391L77.358,279.394L77.408,279.398L77.474,279.403L110.803,279.403L110.869,279.398L110.925,279.394L110.936,279.391L111.001,279.376L111.026,279.37L111.065,279.355L111.127,279.33L111.128,279.33L111.147,279.32L111.186,279.295L111.23,279.267L111.241,279.257L111.292,279.212L111.305,279.201L111.338,279.162L111.341,279.159L111.376,279.107L111.397,279.077L111.41,279.048L111.438,278.987L111.44,278.983L111.45,278.955L111.458,278.923L111.473,278.857L111.476,278.845L111.48,278.791L111.485,278.725L111.485,246.399L111.481,246.336L111.48,246.315L111.477,246.293L111.472,246.272L111.455,246.207L111.452,246.192L111.41,246.094L111.401,246.079L111.389,246.058L111.36,246.019L111.326,245.972L111.247,245.893L111.207,245.861L111.204,245.859L111.138,245.818L111.107,245.798L111.069,245.782L110.998,245.751L110.992,245.749L110.969,245.741L110.923,245.731L110.848,245.714L110.838,245.711L110.773,245.706L110.7,245.701" style="fill:none;fill-rule:nonzero;stroke:black;stroke-width:2px;"/>
                <path id="path878" d="M319.847,316.408L286.962,316.408L286.871,316.413L286.813,316.417L286.78,316.423L286.69,316.441L286.627,316.453L286.603,316.462L286.519,316.492L286.479,316.507L286.441,316.529L286.367,316.57L286.351,316.579L286.301,316.618L286.274,316.639L286.243,316.671L286.195,316.721L286.15,316.787L286.134,316.81L286.117,316.849L286.093,316.901L286.088,316.914L286.073,316.976L286.066,317.006L286.063,317.04L286.058,317.102L286.057,321L286.057,349.45L286.059,349.513L286.069,349.578L286.079,349.641L286.101,349.709L286.106,349.724L286.128,349.769L286.152,349.819L286.159,349.831L286.196,349.88L286.214,349.905L286.239,349.928L286.281,349.969L286.315,349.995L286.339,350.009L286.393,350.041L286.455,350.066L286.482,350.077L286.518,350.085L286.582,350.1L286.593,350.102L286.708,350.11L320.101,350.11L320.162,350.108L320.226,350.098L320.278,350.09L320.291,350.086L320.354,350.067L320.37,350.062L320.413,350.04L320.458,350.018L320.47,350.01L320.483,350.002L320.522,349.971L320.553,349.947L320.57,349.929L320.615,349.88L320.623,349.869L320.65,349.827L320.673,349.789L320.682,349.77L320.712,349.698L320.726,349.644L320.741,349.579L320.742,349.575L320.751,349.45L320.751,317.102L320.75,317.082L320.745,317.04L320.739,316.986L320.731,316.951L320.718,316.912L320.7,316.861L320.693,316.849L320.659,316.787L320.653,316.775L320.645,316.763L320.616,316.728L320.579,316.682L320.566,316.67L320.508,316.618L320.497,316.608L320.44,316.571L320.38,316.532L320.369,316.527L320.289,316.492L320.253,316.476L320.2,316.458L320.118,316.44L320.032,316.421L319.938,316.415L319.847,316.408" style="fill:none;fill-rule:nonzero;stroke:black;stroke-width:2px;"/>
                <path id="path888" d="M292.67,194.665L259.548,194.665L259.474,194.669L259.446,194.671L259.399,194.68L259.324,194.694L259.309,194.697L259.25,194.717L259.197,194.736L259.178,194.746L259.109,194.782L259.085,194.795L258.993,194.864L258.985,194.872L258.933,194.926L258.913,194.946L258.905,194.955L258.887,194.983L258.846,195.043L258.846,195.044L258.817,195.107L258.801,195.141L258.796,195.157L258.792,195.171L258.776,195.236L258.77,195.258L258.767,195.301L258.762,195.364L258.762,227.72L258.767,227.756L258.775,227.822L258.777,227.843L258.789,227.887L258.804,227.939L258.81,227.951L258.838,228.013L258.849,228.039L258.856,228.05L258.871,228.071L258.91,228.127L258.913,228.132L258.956,228.176L258.983,228.204L259.005,228.222L259.018,228.232L259.062,228.26L259.102,228.285L259.12,228.293L259.182,228.32L259.196,228.326L259.22,228.335L259.246,228.34L259.312,228.355L259.328,228.359L259.378,228.363L259.444,228.367L292.773,228.367L292.839,228.362L292.895,228.358L292.906,228.356L292.997,228.335L293.035,228.32L293.097,228.295L293.098,228.294L293.117,228.285L293.156,228.26L293.2,228.231L293.211,228.221L293.262,228.176L293.275,228.165L293.308,228.127L293.311,228.123L293.346,228.071L293.367,228.041L293.38,228.013L293.408,227.952L293.41,227.948L293.42,227.92L293.428,227.887L293.443,227.822L293.446,227.81L293.451,227.756L293.456,227.69L293.456,195.364L293.452,195.3L293.45,195.279L293.447,195.257L293.442,195.236L293.425,195.171L293.422,195.156L293.401,195.107L293.38,195.059L293.371,195.043L293.359,195.023L293.331,194.984L293.296,194.936L293.217,194.857L293.177,194.826L293.174,194.823L293.108,194.782L293.077,194.763L293.039,194.747L292.968,194.716L292.962,194.713L292.939,194.706L292.893,194.695L292.819,194.678L292.809,194.676L292.743,194.671L292.67,194.665" style="fill:none;fill-rule:nonzero;stroke:black;stroke-width:2px;"/>
                <path id="path896" d="M219.882,194.665L186.76,194.665L186.686,194.669L186.658,194.671L186.611,194.68L186.536,194.694L186.521,194.697L186.462,194.717L186.409,194.736L186.39,194.746L186.321,194.782L186.296,194.795L186.257,194.825L186.205,194.864L186.197,194.872L186.145,194.926L186.125,194.946L186.117,194.955L186.099,194.983L186.058,195.043L186.058,195.044L186.029,195.107L186.013,195.141L186.007,195.157L186.004,195.171L185.988,195.236L185.982,195.258L185.979,195.301L185.974,195.364L185.974,227.72L185.979,227.756L185.986,227.822L185.989,227.843L186.001,227.887L186.016,227.939L186.021,227.951L186.049,228.013L186.061,228.039L186.068,228.05L186.083,228.071L186.122,228.127L186.125,228.132L186.168,228.176L186.195,228.204L186.217,228.222L186.23,228.232L186.274,228.26L186.313,228.285L186.332,228.293L186.394,228.32L186.407,228.326L186.432,228.335L186.458,228.34L186.524,228.355L186.54,228.359L186.59,228.363L186.656,228.367L219.985,228.367L220.051,228.362L220.107,228.358L220.118,228.356L220.209,228.335L220.247,228.32L220.309,228.295L220.31,228.294L220.329,228.285L220.368,228.26L220.412,228.231L220.423,228.221L220.474,228.176L220.487,228.165L220.52,228.127L220.523,228.123L220.558,228.071L220.579,228.041L220.592,228.013L220.62,227.952L220.622,227.948L220.632,227.92L220.64,227.887L220.655,227.822L220.658,227.81L220.662,227.756L220.668,227.69L220.668,195.364L220.663,195.3L220.662,195.279L220.659,195.257L220.654,195.236L220.637,195.171L220.634,195.156L220.613,195.107L220.592,195.059L220.583,195.043L220.571,195.023L220.543,194.984L220.508,194.936L220.429,194.857L220.389,194.826L220.386,194.823L220.32,194.782L220.289,194.763L220.251,194.747L220.18,194.716L220.174,194.713L220.151,194.706L220.105,194.695L220.031,194.678L220.021,194.676L219.955,194.671L219.882,194.665" style="fill:none;fill-rule:nonzero;stroke:black;stroke-width:2px;"/>
                <path id="path904" d="M283.453,316.408L250.568,316.408L250.477,316.413L250.419,316.417L250.386,316.423L250.296,316.441L250.233,316.453L250.209,316.462L250.125,316.492L250.085,316.507L250.047,316.529L249.973,316.57L249.957,316.579L249.907,316.618L249.88,316.639L249.849,316.671L249.801,316.721L249.756,316.787L249.74,316.81L249.722,316.849L249.699,316.901L249.694,316.914L249.679,316.976L249.672,317.006L249.669,317.04L249.663,317.102L249.663,349.45L249.665,349.513L249.675,349.578L249.685,349.641L249.707,349.709L249.712,349.724L249.733,349.769L249.758,349.819L249.765,349.831L249.802,349.88L249.82,349.905L249.845,349.928L249.887,349.969L249.921,349.995L249.945,350.009L249.999,350.041L250.061,350.066L250.088,350.077L250.124,350.085L250.188,350.1L250.199,350.102L250.314,350.11L283.707,350.11L283.768,350.108L283.832,350.098L283.884,350.09L283.897,350.086L283.96,350.067L283.975,350.062L284.019,350.04L284.064,350.018L284.076,350.01L284.089,350.002L284.128,349.971L284.159,349.947L284.176,349.929L284.221,349.88L284.229,349.869L284.256,349.827L284.279,349.789L284.288,349.77L284.318,349.698L284.332,349.644L284.347,349.579L284.348,349.575L284.357,349.45L284.357,317.102L284.356,317.082L284.351,317.04L284.345,316.986L284.337,316.951L284.324,316.912L284.306,316.861L284.299,316.849L284.265,316.787L284.259,316.775L284.251,316.763L284.222,316.728L284.185,316.682L284.172,316.67L284.114,316.618L284.103,316.608L284.046,316.571L283.986,316.532L283.975,316.527L283.895,316.492L283.859,316.476L283.806,316.458L283.724,316.44L283.638,316.421L283.544,316.415L283.453,316.408" style="fill:none;fill-rule:nonzero;stroke:black;stroke-width:2px;"/>
                <path id="path908" d="M292.67,245.701L259.548,245.701L259.474,245.705L259.446,245.706L259.399,245.715L259.324,245.73L259.309,245.732L259.25,245.753L259.197,245.771L259.178,245.782L259.109,245.818L259.085,245.831L259.045,245.86L258.993,245.899L258.985,245.908L258.933,245.961L258.913,245.982L258.905,245.991L258.887,246.019L258.846,246.079L258.846,246.08L258.817,246.143L258.801,246.177L258.796,246.192L258.792,246.207L258.776,246.272L258.77,246.293L258.767,246.336L258.762,246.399L258.762,278.756L258.767,278.791L258.775,278.857L258.777,278.878L258.789,278.923L258.804,278.974L258.838,279.048L258.849,279.074L258.856,279.086L258.871,279.107L258.91,279.162L258.913,279.167L258.956,279.211L258.983,279.239L259.005,279.257L259.018,279.268L259.062,279.295L259.102,279.321L259.12,279.329L259.182,279.356L259.196,279.362L259.22,279.37L259.246,279.376L259.312,279.391L259.328,279.394L259.378,279.398L259.444,279.403L292.773,279.403L292.839,279.398L292.895,279.394L292.906,279.391L292.997,279.37L293.035,279.355L293.097,279.33L293.098,279.33L293.117,279.32L293.156,279.295L293.2,279.267L293.211,279.257L293.262,279.212L293.275,279.201L293.308,279.162L293.311,279.159L293.346,279.107L293.367,279.077L293.38,279.048L293.408,278.987L293.41,278.983L293.42,278.955L293.428,278.923L293.443,278.857L293.446,278.845L293.451,278.791L293.456,278.725L293.456,246.399L293.452,246.336L293.45,246.315L293.447,246.293L293.442,246.272L293.425,246.207L293.422,246.192L293.38,246.094L293.371,246.079L293.359,246.058L293.331,246.019L293.296,245.972L293.217,245.893L293.177,245.861L293.174,245.859L293.108,245.818L293.077,245.798L293.039,245.782L292.968,245.751L292.939,245.741L292.893,245.731L292.819,245.714L292.809,245.711L292.743,245.706L292.67,245.701" style="fill:none;fill-rule:nonzero;stroke:black;stroke-width:2px;"/>
                <path id="path912" d="M165.235,281.055L132.224,281.055L132.143,281.06L132.07,281.065L131.979,281.086L131.912,281.101L131.898,281.106L131.809,281.14L131.748,281.174L131.69,281.205L131.678,281.214L131.606,281.269L131.561,281.316L131.526,281.352L131.472,281.433L131.463,281.446L131.44,281.496L131.42,281.54L131.415,281.553L131.398,281.624L131.391,281.649L131.388,281.688L131.383,281.751L131.383,289.738L131.382,297.92L131.383,307.92L131.383,314.09L131.385,314.151L131.395,314.218L131.404,314.277L131.407,314.285L131.427,314.35L131.432,314.364L131.455,314.41L131.479,314.46L131.486,314.472L131.524,314.523L131.543,314.547L131.568,314.572L131.611,314.613L131.644,314.638L131.671,314.654L131.724,314.686L131.789,314.712L131.815,314.722L131.852,314.731L131.917,314.746L131.928,314.748L132.043,314.757L165.416,314.757L165.46,314.755L165.542,314.745L165.578,314.74L165.607,314.732L165.672,314.713L165.731,314.685L165.764,314.67L165.791,314.654L165.842,314.615L165.865,314.598L165.891,314.571L165.93,314.53L165.955,314.498L165.973,314.468L166.004,314.416L166.031,314.349L166.042,314.321L166.051,314.285L166.066,314.219L166.067,314.214L166.076,314.09L166.077,304.09L166.077,289.738L166.076,281.751L166.072,281.688L166.07,281.662L166.065,281.631L166.045,281.559L166.038,281.536L166.019,281.496L165.995,281.443L165.988,281.433L165.965,281.396L165.947,281.373L165.899,281.314L165.843,281.263L165.816,281.239L165.803,281.229L165.781,281.215L165.712,281.172L165.697,281.163L165.638,281.137L165.576,281.11L165.562,281.106L165.544,281.1L165.481,281.086L165.395,281.066L165.317,281.061L165.235,281.055" style="fill:none;fill-rule:nonzero;stroke:black;stroke-width:2px;"/>
                <path id="path918" d="M274.417,281.055L241.406,281.055L241.325,281.06L241.252,281.065L241.161,281.086L241.094,281.101L241.08,281.106L240.991,281.14L240.93,281.174L240.872,281.205L240.86,281.214L240.789,281.269L240.743,281.316L240.709,281.352L240.695,281.373L240.654,281.433L240.645,281.446L240.622,281.496L240.602,281.54L240.597,281.553L240.574,281.649L240.57,281.688L240.565,281.751L240.565,289.738L240.564,297.92L240.565,307.92L240.565,314.09L240.567,314.151L240.577,314.218L240.586,314.277L240.589,314.285L240.609,314.35L240.614,314.364L240.637,314.41L240.661,314.46L240.668,314.472L240.707,314.523L240.725,314.547L240.75,314.572L240.794,314.613L240.826,314.638L240.853,314.654L240.906,314.686L240.971,314.712L240.997,314.722L241.034,314.731L241.099,314.746L241.11,314.748L241.225,314.757L274.598,314.757L274.642,314.755L274.724,314.745L274.76,314.74L274.789,314.732L274.854,314.713L274.913,314.685L274.946,314.67L274.973,314.654L275.024,314.615L275.047,314.598L275.073,314.571L275.112,314.53L275.137,314.498L275.155,314.468L275.186,314.416L275.213,314.349L275.224,314.321L275.233,314.285L275.248,314.219L275.249,314.214L275.259,314.09L275.259,289.738L275.258,281.751L275.254,281.688L275.252,281.662L275.247,281.631L275.227,281.559L275.22,281.536L275.202,281.496L275.177,281.443L275.17,281.433L275.148,281.396L275.129,281.373L275.081,281.314L275.025,281.263L274.998,281.239L274.985,281.229L274.963,281.215L274.894,281.172L274.88,281.163L274.82,281.137L274.758,281.11L274.744,281.106L274.726,281.1L274.663,281.086L274.577,281.066L274.499,281.061L274.417,281.055" style="fill:none;fill-rule:nonzero;stroke:black;stroke-width:2px;"/>
                <path id="path928" d="M365.458,194.665L332.336,194.665L332.262,194.669L332.234,194.671L332.187,194.68L332.112,194.694L332.097,194.697L332.038,194.717L331.985,194.736L331.966,194.746L331.897,194.782L331.873,194.795L331.781,194.864L331.773,194.872L331.721,194.926L331.701,194.946L331.693,194.955L331.675,194.983L331.634,195.043L331.634,195.044L331.605,195.107L331.589,195.141L331.584,195.157L331.58,195.171L331.564,195.236L331.559,195.258L331.555,195.301L331.55,195.364L331.55,227.72L331.555,227.756L331.563,227.822L331.565,227.843L331.577,227.887L331.592,227.939L331.598,227.951L331.626,228.013L331.637,228.039L331.644,228.05L331.659,228.071L331.698,228.127L331.701,228.132L331.744,228.176L331.771,228.204L331.794,228.222L331.806,228.232L331.85,228.26L331.89,228.285L331.908,228.293L331.97,228.32L331.984,228.326L332.008,228.335L332.034,228.34L332.1,228.355L332.116,228.359L332.166,228.363L332.232,228.367L365.562,228.367L365.627,228.362L365.683,228.358L365.694,228.356L365.785,228.335L365.823,228.32L365.885,228.295L365.886,228.294L365.905,228.285L365.944,228.26L365.988,228.231L366,228.221L366.05,228.176L366.063,228.165L366.096,228.127L366.099,228.123L366.134,228.071L366.155,228.041L366.168,228.013L366.197,227.952L366.198,227.948L366.208,227.92L366.216,227.887L366.232,227.822L366.234,227.81L366.239,227.756L366.244,227.69L366.244,195.364L366.24,195.3L366.238,195.279L366.235,195.257L366.23,195.236L366.214,195.171L366.21,195.156L366.189,195.107L366.168,195.059L366.159,195.043L366.147,195.023L366.119,194.984L366.084,194.936L366.005,194.857L365.965,194.826L365.962,194.823L365.896,194.782L365.865,194.763L365.827,194.747L365.756,194.716L365.75,194.713L365.727,194.706L365.681,194.695L365.607,194.678L365.597,194.676L365.532,194.671L365.458,194.665" style="fill:none;fill-rule:nonzero;stroke:black;stroke-width:2px;"/>
                <path id="path932" d="M256.276,194.665L223.154,194.665L223.08,194.669L223.052,194.671L223.005,194.68L222.93,194.694L222.915,194.697L222.856,194.717L222.803,194.736L222.784,194.746L222.715,194.782L222.691,194.795L222.599,194.864L222.591,194.872L222.539,194.926L222.519,194.946L222.511,194.955L222.493,194.983L222.452,195.043L222.452,195.044L222.423,195.107L222.407,195.141L222.401,195.157L222.398,195.171L222.382,195.236L222.376,195.258L222.373,195.301L222.368,195.364L222.368,227.72L222.373,227.756L222.381,227.822L222.383,227.843L222.395,227.887L222.41,227.939L222.416,227.951L222.444,228.013L222.455,228.039L222.462,228.05L222.477,228.071L222.516,228.127L222.519,228.132L222.562,228.176L222.589,228.204L222.611,228.222L222.624,228.232L222.668,228.26L222.707,228.285L222.726,228.293L222.788,228.32L222.801,228.326L222.826,228.335L222.852,228.34L222.918,228.355L222.934,228.359L222.984,228.363L223.05,228.367L256.379,228.367L256.445,228.362L256.501,228.358L256.512,228.356L256.603,228.335L256.641,228.32L256.703,228.295L256.704,228.294L256.723,228.285L256.762,228.26L256.806,228.231L256.817,228.221L256.868,228.176L256.881,228.165L256.914,228.127L256.917,228.123L256.952,228.071L256.973,228.041L256.986,228.013L257.014,227.952L257.016,227.948L257.026,227.92L257.034,227.887L257.049,227.822L257.052,227.81L257.057,227.756L257.062,227.69L257.062,195.364L257.057,195.3L257.056,195.279L257.053,195.257L257.048,195.236L257.031,195.171L257.028,195.156L257.007,195.107L256.986,195.059L256.977,195.043L256.965,195.023L256.937,194.984L256.902,194.936L256.823,194.857L256.783,194.826L256.78,194.823L256.714,194.782L256.683,194.763L256.645,194.747L256.574,194.716L256.568,194.713L256.545,194.706L256.499,194.695L256.425,194.678L256.415,194.676L256.349,194.671L256.276,194.665" style="fill:none;fill-rule:nonzero;stroke:black;stroke-width:2px;"/>
                <path id="path954" d="M183.488,194.665L150.366,194.665L150.292,194.669L150.264,194.671L150.217,194.68L150.142,194.694L150.127,194.697L150.068,194.717L150.015,194.736L149.996,194.746L149.927,194.782L149.902,194.795L149.863,194.825L149.811,194.864L149.803,194.872L149.751,194.926L149.731,194.946L149.723,194.955L149.705,194.983L149.664,195.043L149.664,195.044L149.635,195.107L149.619,195.141L149.613,195.157L149.61,195.171L149.594,195.236L149.588,195.258L149.585,195.301L149.58,195.364L149.58,227.72L149.585,227.756L149.592,227.822L149.595,227.843L149.607,227.887L149.622,227.939L149.627,227.951L149.655,228.013L149.667,228.039L149.674,228.05L149.689,228.071L149.728,228.127L149.731,228.132L149.774,228.176L149.801,228.204L149.823,228.222L149.836,228.232L149.879,228.26L149.919,228.285L149.938,228.293L150,228.32L150.013,228.326L150.038,228.335L150.064,228.34L150.13,228.355L150.146,228.359L150.196,228.363L150.262,228.367L183.591,228.367L183.657,228.362L183.713,228.358L183.724,228.356L183.789,228.341L183.814,228.335L183.853,228.32L183.915,228.295L183.916,228.294L183.935,228.285L183.974,228.26L184.018,228.231L184.029,228.221L184.08,228.176L184.093,228.165L184.126,228.127L184.129,228.123L184.164,228.071L184.185,228.041L184.198,228.013L184.226,227.952L184.228,227.948L184.238,227.92L184.246,227.887L184.261,227.822L184.264,227.81L184.268,227.756L184.274,227.69L184.274,195.364L184.269,195.3L184.268,195.279L184.265,195.257L184.26,195.236L184.243,195.171L184.24,195.156L184.219,195.107L184.198,195.059L184.189,195.043L184.177,195.023L184.149,194.984L184.114,194.936L184.035,194.857L183.995,194.826L183.992,194.823L183.926,194.782L183.895,194.763L183.857,194.747L183.786,194.716L183.78,194.713L183.757,194.706L183.711,194.695L183.636,194.678L183.626,194.676L183.561,194.671L183.488,194.665" style="fill:none;fill-rule:nonzero;stroke:black;stroke-width:2px;"/>
                <path id="path964" d="M174.271,316.408L141.386,316.408L141.295,316.413L141.237,316.417L141.204,316.423L141.114,316.441L141.051,316.453L141.027,316.462L140.943,316.492L140.903,316.507L140.865,316.529L140.791,316.57L140.775,316.579L140.725,316.618L140.698,316.639L140.667,316.671L140.619,316.721L140.574,316.787L140.558,316.81L140.54,316.849L140.517,316.901L140.512,316.914L140.497,316.976L140.49,317.006L140.487,317.04L140.481,317.102L140.481,349.45L140.483,349.513L140.493,349.578L140.503,349.641L140.525,349.709L140.529,349.724L140.551,349.769L140.576,349.819L140.583,349.831L140.62,349.88L140.638,349.905L140.663,349.928L140.705,349.969L140.739,349.995L140.763,350.009L140.817,350.041L140.879,350.066L140.906,350.077L140.942,350.085L141.006,350.1L141.017,350.102L141.132,350.11L174.524,350.11L174.586,350.108L174.65,350.098L174.702,350.09L174.777,350.067L174.793,350.062L174.837,350.04L174.882,350.018L174.894,350.01L174.907,350.002L174.946,349.971L174.977,349.947L174.994,349.929L175.039,349.88L175.047,349.869L175.074,349.827L175.097,349.789L175.106,349.77L175.136,349.698L175.149,349.644L175.166,349.575L175.175,349.45L175.175,317.102L175.174,317.082L175.169,317.04L175.163,316.986L175.155,316.951L175.142,316.912L175.124,316.861L175.117,316.849L175.083,316.787L175.077,316.775L175.068,316.763L175.04,316.728L175.003,316.682L174.99,316.67L174.932,316.618L174.921,316.608L174.864,316.571L174.804,316.532L174.793,316.527L174.713,316.492L174.677,316.476L174.624,316.458L174.542,316.44L174.456,316.421L174.362,316.415L174.271,316.408" style="fill:none;fill-rule:nonzero;stroke:black;stroke-width:2px;"/>
                <path id="path968" d="M247.059,316.408L214.174,316.408L214.083,316.413L214.025,316.417L213.992,316.423L213.902,316.441L213.839,316.453L213.815,316.462L213.731,316.492L213.691,316.507L213.653,316.529L213.579,316.57L213.563,316.579L213.513,316.618L213.486,316.639L213.455,316.671L213.407,316.721L213.362,316.787L213.346,316.81L213.328,316.849L213.305,316.901L213.3,316.914L213.285,316.976L213.278,317.006L213.275,317.04L213.269,317.102L213.269,349.45L213.271,349.513L213.281,349.578L213.291,349.641L213.313,349.709L213.317,349.724L213.339,349.769L213.364,349.819L213.371,349.831L213.408,349.88L213.426,349.905L213.451,349.928L213.493,349.969L213.527,349.995L213.551,350.009L213.605,350.041L213.667,350.066L213.694,350.077L213.73,350.085L213.794,350.1L213.805,350.102L213.92,350.11L247.313,350.11L247.374,350.108L247.438,350.098L247.49,350.09L247.503,350.086L247.566,350.067L247.581,350.062L247.625,350.04L247.67,350.018L247.682,350.01L247.695,350.002L247.734,349.971L247.765,349.947L247.782,349.929L247.827,349.88L247.835,349.869L247.862,349.827L247.885,349.789L247.894,349.77L247.924,349.698L247.937,349.644L247.954,349.575L247.963,349.45L247.963,317.102L247.962,317.082L247.957,317.04L247.951,316.986L247.943,316.951L247.93,316.912L247.912,316.861L247.905,316.849L247.871,316.787L247.865,316.775L247.856,316.763L247.828,316.728L247.791,316.682L247.778,316.67L247.72,316.618L247.709,316.608L247.652,316.571L247.592,316.532L247.581,316.527L247.501,316.492L247.465,316.476L247.412,316.458L247.33,316.44L247.244,316.421L247.15,316.415L247.059,316.408" style="fill:none;fill-rule:nonzero;stroke:black;stroke-width:2px;"/>
                <path id="path972" d="M365.458,245.701L332.336,245.701L332.262,245.705L332.234,245.706L332.187,245.715L332.112,245.73L332.097,245.732L332.038,245.753L331.985,245.771L331.966,245.782L331.897,245.818L331.873,245.831L331.833,245.86L331.781,245.899L331.773,245.908L331.721,245.961L331.701,245.982L331.693,245.991L331.675,246.019L331.634,246.079L331.634,246.08L331.605,246.143L331.589,246.177L331.584,246.192L331.58,246.207L331.564,246.272L331.559,246.293L331.555,246.336L331.55,246.399L331.55,278.756L331.555,278.791L331.563,278.857L331.565,278.878L331.577,278.923L331.592,278.974L331.626,279.048L331.637,279.074L331.644,279.086L331.659,279.107L331.698,279.162L331.701,279.167L331.744,279.211L331.771,279.239L331.794,279.257L331.806,279.268L331.85,279.295L331.89,279.321L331.908,279.329L331.97,279.356L331.984,279.362L332.008,279.37L332.034,279.376L332.1,279.391L332.116,279.394L332.166,279.398L332.232,279.403L365.562,279.403L365.627,279.398L365.683,279.394L365.694,279.391L365.785,279.37L365.823,279.355L365.885,279.33L365.886,279.33L365.905,279.32L365.944,279.295L365.988,279.267L366,279.257L366.05,279.212L366.063,279.201L366.096,279.162L366.099,279.159L366.134,279.107L366.155,279.077L366.168,279.048L366.197,278.987L366.198,278.983L366.208,278.955L366.216,278.923L366.232,278.857L366.234,278.845L366.239,278.791L366.244,278.725L366.244,246.399L366.24,246.336L366.238,246.315L366.235,246.293L366.23,246.272L366.214,246.207L366.21,246.192L366.168,246.094L366.159,246.079L366.147,246.058L366.119,246.019L366.084,245.972L366.005,245.893L365.965,245.861L365.962,245.859L365.896,245.818L365.865,245.798L365.827,245.782L365.756,245.751L365.75,245.749L365.727,245.741L365.681,245.731L365.607,245.714L365.597,245.711L365.532,245.706L365.458,245.701" style="fill:none;fill-rule:nonzero;stroke:black;stroke-width:2px;"/>
                <path id="path990" d="M147.094,245.701L113.972,245.701L113.898,245.705L113.87,245.706L113.823,245.715L113.748,245.73L113.733,245.732L113.674,245.753L113.621,245.771L113.602,245.782L113.533,245.818L113.508,245.831L113.469,245.86L113.417,245.899L113.409,245.908L113.357,245.961L113.337,245.982L113.329,245.991L113.311,246.019L113.27,246.079L113.27,246.08L113.241,246.143L113.225,246.177L113.219,246.192L113.216,246.207L113.2,246.272L113.194,246.293L113.191,246.336L113.186,246.399L113.186,278.756L113.191,278.791L113.198,278.857L113.201,278.878L113.213,278.923L113.228,278.974L113.233,278.987L113.261,279.048L113.273,279.074L113.28,279.086L113.295,279.107L113.333,279.162L113.337,279.167L113.38,279.211L113.407,279.239L113.429,279.257L113.442,279.268L113.485,279.295L113.525,279.321L113.544,279.329L113.606,279.356L113.619,279.362L113.644,279.37L113.67,279.376L113.736,279.391L113.752,279.394L113.802,279.398L113.868,279.403L147.197,279.403L147.263,279.398L147.319,279.394L147.33,279.391L147.421,279.37L147.459,279.355L147.521,279.33L147.522,279.33L147.541,279.32L147.58,279.295L147.624,279.267L147.635,279.257L147.686,279.212L147.699,279.201L147.732,279.162L147.735,279.159L147.77,279.107L147.791,279.077L147.804,279.048L147.832,278.987L147.834,278.983L147.844,278.955L147.852,278.923L147.867,278.857L147.87,278.845L147.874,278.791L147.879,278.725L147.879,246.399L147.875,246.336L147.874,246.315L147.871,246.293L147.866,246.272L147.849,246.207L147.846,246.192L147.804,246.094L147.795,246.079L147.783,246.058L147.755,246.019L147.72,245.972L147.641,245.893L147.601,245.861L147.598,245.859L147.532,245.818L147.501,245.798L147.463,245.782L147.392,245.751L147.363,245.741L147.317,245.731L147.242,245.714L147.232,245.711L147.167,245.706L147.094,245.701" style="fill:none;fill-rule:nonzero;stroke:black;stroke-width:2px;"/>
                <path id="path992" d="M137.877,316.408L104.992,316.408L104.9,316.413L104.843,316.417L104.81,316.423L104.72,316.441L104.657,316.453L104.633,316.462L104.549,316.492L104.509,316.507L104.471,316.529L104.397,316.57L104.381,316.579L104.331,316.618L104.304,316.639L104.273,316.671L104.225,316.721L104.18,316.787L104.164,316.81L104.146,316.849L104.123,316.901L104.118,316.914L104.103,316.976L104.096,317.006L104.093,317.04L104.087,317.102L104.087,349.45L104.089,349.513L104.099,349.578L104.109,349.641L104.131,349.709L104.135,349.724L104.157,349.769L104.181,349.819L104.189,349.831L104.226,349.88L104.244,349.905L104.269,349.928L104.311,349.969L104.345,349.995L104.369,350.009L104.423,350.041L104.485,350.066L104.512,350.077L104.548,350.085L104.612,350.1L104.623,350.102L104.738,350.11L138.13,350.11L138.192,350.108L138.256,350.098L138.308,350.09L138.383,350.067L138.399,350.062L138.443,350.04L138.488,350.018L138.5,350.01L138.513,350.002L138.552,349.971L138.583,349.947L138.6,349.929L138.645,349.88L138.653,349.869L138.68,349.827L138.703,349.789L138.712,349.77L138.742,349.698L138.755,349.644L138.772,349.575L138.781,349.45L138.781,317.102L138.78,317.082L138.775,317.04L138.769,316.986L138.761,316.951L138.748,316.912L138.73,316.861L138.723,316.849L138.689,316.787L138.683,316.775L138.674,316.763L138.646,316.728L138.609,316.682L138.596,316.67L138.538,316.618L138.527,316.608L138.47,316.571L138.41,316.532L138.399,316.527L138.319,316.492L138.283,316.476L138.23,316.458L138.148,316.44L138.062,316.421L137.968,316.415L137.877,316.408" style="fill:none;fill-rule:nonzero;stroke:black;stroke-width:2px;"/>
                <path id="path1002" d="M383.599,281.055L350.589,281.055L350.507,281.06L350.434,281.065L350.343,281.086L350.276,281.101L350.262,281.106L350.173,281.14L350.112,281.174L350.054,281.205L350.042,281.214L349.971,281.269L349.925,281.316L349.891,281.352L349.877,281.373L349.836,281.433L349.827,281.446L349.804,281.496L349.784,281.54L349.779,281.553L349.756,281.649L349.752,281.688L349.747,281.751L349.747,289.738L349.746,297.92L349.747,307.92L349.747,314.09L349.749,314.151L349.759,314.218L349.769,314.277L349.771,314.285L349.791,314.35L349.796,314.364L349.819,314.41L349.843,314.46L349.851,314.472L349.889,314.523L349.907,314.547L349.932,314.572L349.976,314.613L350.008,314.638L350.035,314.654L350.088,314.686L350.153,314.712L350.179,314.722L350.216,314.731L350.281,314.746L350.292,314.748L350.407,314.757L383.78,314.757L383.824,314.755L383.906,314.745L383.942,314.74L383.971,314.732L384.036,314.713L384.095,314.685L384.128,314.67L384.156,314.654L384.206,314.615L384.229,314.598L384.255,314.571L384.295,314.53L384.319,314.498L384.337,314.468L384.368,314.416L384.395,314.349L384.406,314.321L384.415,314.285L384.43,314.219L384.431,314.214L384.441,314.09L384.441,289.738L384.44,281.751L384.436,281.688L384.434,281.662L384.429,281.631L384.409,281.559L384.402,281.536L384.384,281.496L384.359,281.443L384.353,281.433L384.33,281.396L384.311,281.373L384.263,281.314L384.207,281.263L384.18,281.239L384.167,281.229L384.145,281.215L384.077,281.172L384.062,281.163L384.002,281.137L383.94,281.11L383.926,281.106L383.908,281.1L383.845,281.086L383.759,281.066L383.681,281.061L383.599,281.055" style="fill:none;fill-rule:nonzero;stroke:black;stroke-width:2px;"/>
                <path id="path1034" d="M347.205,281.055L314.195,281.055L314.113,281.06L314.04,281.065L313.949,281.086L313.882,281.101L313.868,281.106L313.779,281.14L313.718,281.174L313.66,281.205L313.648,281.214L313.577,281.269L313.531,281.316L313.497,281.352L313.483,281.373L313.442,281.433L313.433,281.446L313.41,281.496L313.39,281.54L313.385,281.553L313.362,281.649L313.358,281.688L313.353,281.751L313.353,289.738L313.352,297.92L313.353,307.92L313.353,314.09L313.355,314.151L313.365,314.218L313.375,314.277L313.377,314.285L313.397,314.35L313.402,314.364L313.425,314.41L313.449,314.46L313.457,314.472L313.495,314.523L313.513,314.547L313.538,314.572L313.582,314.613L313.614,314.638L313.641,314.654L313.694,314.686L313.759,314.712L313.785,314.722L313.822,314.731L313.887,314.746L313.898,314.748L314.013,314.757L347.386,314.757L347.43,314.755L347.512,314.745L347.548,314.74L347.577,314.732L347.642,314.713L347.701,314.685L347.734,314.67L347.762,314.654L347.812,314.615L347.835,314.598L347.861,314.571L347.901,314.53L347.925,314.498L347.943,314.468L347.974,314.416L348.001,314.349L348.012,314.321L348.021,314.285L348.036,314.219L348.037,314.214L348.047,314.09L348.047,289.738L348.046,281.751L348.042,281.688L348.04,281.662L348.035,281.631L348.015,281.559L348.008,281.536L347.99,281.496L347.965,281.443L347.958,281.433L347.936,281.396L347.917,281.373L347.869,281.314L347.813,281.263L347.786,281.239L347.773,281.229L347.751,281.215L347.683,281.172L347.668,281.163L347.608,281.137L347.546,281.11L347.532,281.106L347.514,281.1L347.451,281.086L347.365,281.066L347.287,281.061L347.205,281.055" style="fill:none;fill-rule:nonzero;stroke:black;stroke-width:2px;"/>
                <path id="path1046" d="M85.378,178.058L85.092,178.035" style="fill:none;fill-rule:nonzero;stroke:black;stroke-width:2px;"/>
                <path id="path1048" d="M85.378,178.058L85.378,178.305L85.381,178.335L85.383,178.363L85.397,178.42L85.42,178.474L85.451,178.523L85.49,178.567L85.536,178.605L85.587,178.636L85.642,178.658L85.701,178.672L85.76,178.676L104.101,178.676L104.161,178.672L104.219,178.658L104.274,178.636L104.325,178.605L104.371,178.567L104.41,178.523L104.441,178.474L104.464,178.42L104.478,178.363L104.48,178.335L104.483,178.305L104.483,178.058" style="fill:none;fill-rule:nonzero;stroke:black;stroke-width:2px;"/>
                <path id="path1050" d="M104.483,177.242L104.483,174.962" style="fill:none;fill-rule:nonzero;stroke:black;stroke-width:2px;"/>
                <path id="path1052" d="M85.378,174.961L85.378,177.242" style="fill:none;fill-rule:nonzero;stroke:black;stroke-width:2px;"/>
                <path id="path1054" d="M356.241,316.408L323.356,316.408L323.265,316.413L323.207,316.417L323.174,316.423L323.084,316.441L323.021,316.453L322.997,316.462L322.913,316.492L322.873,316.507L322.835,316.529L322.761,316.57L322.745,316.579L322.695,316.618L322.668,316.639L322.637,316.671L322.589,316.721L322.544,316.787L322.528,316.81L322.511,316.849L322.487,316.901L322.482,316.914L322.467,316.976L322.46,317.006L322.457,317.04L322.452,317.102L322.451,321L322.451,349.45L322.453,349.513L322.463,349.578L322.473,349.641L322.495,349.709L322.5,349.724L322.522,349.769L322.546,349.819L322.553,349.831L322.59,349.88L322.608,349.905L322.633,349.928L322.675,349.969L322.709,349.995L322.733,350.009L322.787,350.041L322.849,350.066L322.876,350.077L322.912,350.085L322.976,350.1L322.987,350.102L323.102,350.11L356.495,350.11L356.556,350.108L356.62,350.098L356.672,350.09L356.685,350.086L356.748,350.067L356.764,350.062L356.807,350.04L356.852,350.018L356.864,350.01L356.877,350.002L356.916,349.971L356.947,349.947L356.964,349.929L357.009,349.88L357.017,349.869L357.044,349.827L357.067,349.789L357.076,349.77L357.106,349.698L357.12,349.644L357.135,349.579L357.136,349.575L357.145,349.45L357.145,317.102L357.144,317.082L357.139,317.04L357.133,316.986L357.125,316.951L357.112,316.912L357.094,316.861L357.087,316.849L357.053,316.787L357.047,316.775L357.039,316.763L357.01,316.728L356.973,316.682L356.96,316.67L356.902,316.618L356.891,316.608L356.834,316.571L356.774,316.532L356.763,316.527L356.683,316.492L356.647,316.476L356.594,316.458L356.512,316.44L356.426,316.421L356.332,316.415L356.241,316.408" style="fill:none;fill-rule:nonzero;stroke:black;stroke-width:2px;"/>
                <path id="path1058" d="M210.665,316.408L177.78,316.408L177.689,316.413L177.631,316.417L177.598,316.423L177.508,316.441L177.445,316.453L177.421,316.462L177.337,316.492L177.297,316.507L177.259,316.529L177.185,316.57L177.169,316.579L177.119,316.618L177.092,316.639L177.061,316.671L177.013,316.721L176.968,316.787L176.952,316.81L176.934,316.849L176.911,316.901L176.906,316.914L176.891,316.976L176.884,317.006L176.881,317.04L176.875,317.102L176.875,349.45L176.877,349.513L176.887,349.578L176.897,349.641L176.919,349.709L176.923,349.724L176.945,349.769L176.97,349.819L176.977,349.831L177.014,349.88L177.032,349.905L177.057,349.928L177.099,349.969L177.133,349.995L177.157,350.009L177.211,350.041L177.273,350.066L177.3,350.077L177.336,350.085L177.4,350.1L177.411,350.102L177.526,350.11L210.919,350.11L210.98,350.108L211.044,350.098L211.096,350.09L211.171,350.067L211.187,350.062L211.231,350.04L211.276,350.018L211.288,350.01L211.301,350.002L211.34,349.971L211.371,349.947L211.388,349.929L211.433,349.88L211.441,349.869L211.468,349.827L211.491,349.789L211.5,349.77L211.53,349.698L211.543,349.644L211.56,349.575L211.569,349.45L211.569,317.102L211.568,317.082L211.563,317.04L211.557,316.986L211.549,316.951L211.536,316.912L211.518,316.861L211.511,316.849L211.477,316.787L211.471,316.775L211.462,316.763L211.434,316.728L211.397,316.682L211.384,316.67L211.326,316.618L211.315,316.608L211.258,316.571L211.198,316.532L211.187,316.527L211.107,316.492L211.071,316.476L211.018,316.458L210.936,316.44L210.85,316.421L210.756,316.415L210.665,316.408" style="fill:none;fill-rule:nonzero;stroke:black;stroke-width:2px;"/>
                <path id="path1104" d="M329.064,245.701L295.942,245.701L295.868,245.705L295.84,245.706L295.793,245.715L295.718,245.73L295.703,245.732L295.644,245.753L295.591,245.771L295.572,245.782L295.503,245.818L295.479,245.831L295.439,245.86L295.387,245.899L295.379,245.908L295.327,245.961L295.307,245.982L295.299,245.991L295.281,246.019L295.24,246.079L295.24,246.08L295.211,246.143L295.195,246.177L295.19,246.192L295.186,246.207L295.17,246.272L295.164,246.293L295.161,246.336L295.156,246.399L295.156,278.756L295.161,278.791L295.169,278.857L295.171,278.878L295.183,278.923L295.198,278.974L295.204,278.987L295.232,279.048L295.243,279.074L295.25,279.086L295.265,279.107L295.304,279.162L295.307,279.167L295.35,279.211L295.377,279.239L295.4,279.257L295.412,279.268L295.456,279.295L295.496,279.321L295.514,279.329L295.576,279.356L295.59,279.362L295.614,279.37L295.64,279.376L295.706,279.391L295.722,279.394L295.772,279.398L295.838,279.403L329.168,279.403L329.233,279.398L329.289,279.394L329.3,279.391L329.391,279.37L329.429,279.355L329.491,279.33L329.492,279.33L329.511,279.32L329.55,279.295L329.594,279.267L329.605,279.257L329.656,279.212L329.669,279.201L329.702,279.162L329.705,279.159L329.74,279.107L329.761,279.077L329.774,279.048L329.803,278.987L329.804,278.983L329.814,278.955L329.822,278.923L329.837,278.857L329.84,278.845L329.845,278.791L329.85,278.725L329.85,246.399L329.846,246.336L329.844,246.315L329.841,246.293L329.836,246.272L329.819,246.207L329.816,246.192L329.774,246.094L329.765,246.079L329.753,246.058L329.725,246.019L329.69,245.972L329.611,245.893L329.571,245.861L329.568,245.859L329.502,245.818L329.471,245.798L329.433,245.782L329.362,245.751L329.356,245.749L329.333,245.741L329.287,245.731L329.213,245.714L329.203,245.711L329.138,245.706L329.064,245.701" style="fill:none;fill-rule:nonzero;stroke:black;stroke-width:2px;"/>
                <path id="path1112" d="M201.629,281.055L168.618,281.055L168.537,281.06L168.464,281.065L168.373,281.086L168.306,281.101L168.292,281.106L168.203,281.14L168.142,281.174L168.084,281.205L168.072,281.214L168,281.269L167.955,281.316L167.92,281.352L167.866,281.433L167.857,281.446L167.834,281.496L167.814,281.54L167.809,281.553L167.792,281.624L167.785,281.649L167.782,281.688L167.777,281.751L167.777,289.738L167.776,297.92L167.777,307.92L167.777,314.09L167.779,314.151L167.789,314.218L167.798,314.277L167.801,314.285L167.821,314.35L167.826,314.364L167.849,314.41L167.873,314.46L167.88,314.472L167.918,314.523L167.937,314.547L167.962,314.572L168.006,314.613L168.038,314.638L168.065,314.654L168.118,314.686L168.183,314.712L168.209,314.722L168.246,314.731L168.311,314.746L168.322,314.748L168.437,314.757L201.81,314.757L201.854,314.755L201.936,314.745L201.972,314.74L202.001,314.732L202.066,314.713L202.125,314.685L202.158,314.67L202.185,314.654L202.236,314.615L202.259,314.598L202.285,314.571L202.324,314.53L202.349,314.498L202.367,314.468L202.398,314.416L202.425,314.349L202.436,314.321L202.445,314.285L202.46,314.219L202.461,314.214L202.471,314.09L202.471,289.738L202.47,281.751L202.466,281.688L202.464,281.662L202.459,281.631L202.439,281.559L202.432,281.536L202.413,281.496L202.389,281.443L202.382,281.433L202.359,281.396L202.341,281.373L202.293,281.314L202.237,281.263L202.21,281.239L202.197,281.229L202.175,281.215L202.106,281.172L202.091,281.163L202.032,281.137L201.97,281.11L201.956,281.106L201.938,281.1L201.875,281.086L201.789,281.066L201.711,281.061L201.629,281.055" style="fill:none;fill-rule:nonzero;stroke:black;stroke-width:2px;"/>
                <path id="path1122" d="M110.7,194.665L77.578,194.665L77.504,194.669L77.476,194.671L77.429,194.68L77.354,194.694L77.339,194.697L77.28,194.717L77.227,194.736L77.208,194.746L77.139,194.782L77.114,194.795L77.075,194.825L77.023,194.864L77.015,194.872L76.963,194.926L76.943,194.946L76.935,194.955L76.917,194.983L76.876,195.043L76.876,195.044L76.846,195.107L76.831,195.141L76.825,195.157L76.822,195.171L76.806,195.236L76.8,195.258L76.797,195.301L76.792,195.364L76.792,227.72L76.797,227.756L76.804,227.822L76.807,227.843L76.819,227.887L76.834,227.939L76.839,227.951L76.867,228.013L76.879,228.039L76.886,228.05L76.901,228.071L76.939,228.127L76.943,228.132L76.986,228.176L77.013,228.204L77.035,228.222L77.048,228.232L77.091,228.26L77.131,228.285L77.15,228.293L77.212,228.32L77.225,228.326L77.25,228.335L77.276,228.34L77.342,228.355L77.358,228.359L77.408,228.363L77.474,228.367L110.803,228.367L110.869,228.362L110.925,228.358L110.936,228.356L111.001,228.341L111.026,228.335L111.065,228.32L111.127,228.295L111.128,228.294L111.147,228.285L111.186,228.26L111.23,228.231L111.241,228.221L111.292,228.176L111.305,228.165L111.338,228.127L111.341,228.123L111.376,228.071L111.397,228.041L111.41,228.013L111.438,227.952L111.44,227.948L111.45,227.92L111.458,227.887L111.473,227.822L111.476,227.81L111.48,227.756L111.485,227.69L111.485,195.364L111.481,195.3L111.48,195.279L111.477,195.257L111.472,195.236L111.455,195.171L111.452,195.156L111.431,195.107L111.41,195.059L111.401,195.043L111.389,195.023L111.36,194.984L111.326,194.936L111.247,194.857L111.207,194.826L111.204,194.823L111.138,194.782L111.107,194.763L111.069,194.747L110.998,194.716L110.992,194.713L110.969,194.706L110.923,194.695L110.848,194.678L110.838,194.676L110.773,194.671L110.7,194.665" style="fill:none;fill-rule:nonzero;stroke:black;stroke-width:2px;"/>
                <path id="path1126" d="M183.488,245.701L150.366,245.701L150.292,245.705L150.264,245.706L150.217,245.715L150.142,245.73L150.127,245.732L150.068,245.753L150.015,245.771L149.996,245.782L149.927,245.818L149.902,245.831L149.863,245.86L149.811,245.899L149.803,245.908L149.751,245.961L149.731,245.982L149.723,245.991L149.705,246.019L149.664,246.079L149.664,246.08L149.635,246.143L149.619,246.177L149.613,246.192L149.61,246.207L149.594,246.272L149.588,246.293L149.585,246.336L149.58,246.399L149.58,278.756L149.585,278.791L149.592,278.857L149.595,278.878L149.607,278.923L149.622,278.974L149.627,278.987L149.655,279.048L149.667,279.074L149.674,279.086L149.689,279.107L149.728,279.162L149.731,279.167L149.774,279.211L149.801,279.239L149.823,279.257L149.836,279.268L149.879,279.295L149.919,279.321L149.938,279.329L150,279.356L150.013,279.362L150.038,279.37L150.064,279.376L150.13,279.391L150.146,279.394L150.196,279.398L150.262,279.403L183.591,279.403L183.657,279.398L183.713,279.394L183.724,279.391L183.789,279.376L183.814,279.37L183.853,279.355L183.915,279.33L183.916,279.33L183.935,279.32L183.974,279.295L184.018,279.267L184.029,279.257L184.08,279.212L184.093,279.201L184.126,279.162L184.129,279.159L184.164,279.107L184.185,279.077L184.198,279.048L184.226,278.987L184.228,278.983L184.238,278.955L184.246,278.923L184.261,278.857L184.264,278.845L184.268,278.791L184.274,278.725L184.274,246.399L184.269,246.336L184.268,246.315L184.265,246.293L184.26,246.272L184.243,246.207L184.24,246.192L184.198,246.094L184.189,246.079L184.177,246.058L184.149,246.019L184.114,245.972L184.035,245.893L183.995,245.861L183.992,245.859L183.926,245.818L183.895,245.798L183.857,245.782L183.786,245.751L183.78,245.749L183.757,245.741L183.711,245.731L183.636,245.714L183.626,245.711L183.561,245.706L183.488,245.701" style="fill:none;fill-rule:nonzero;stroke:black;stroke-width:2px;"/>
                <path id="path1152" d="M101.483,316.408L68.598,316.408L68.506,316.413L68.449,316.417L68.416,316.423L68.326,316.441L68.263,316.453L68.239,316.462L68.155,316.492L68.115,316.507L68.077,316.529L68.003,316.57L67.987,316.579L67.937,316.618L67.91,316.639L67.879,316.671L67.831,316.721L67.786,316.787L67.77,316.81L67.752,316.849L67.729,316.901L67.724,316.914L67.709,316.976L67.702,317.006L67.699,317.04L67.693,317.102L67.693,349.45L67.695,349.513L67.705,349.578L67.715,349.641L67.737,349.709L67.741,349.724L67.763,349.769L67.787,349.819L67.795,349.831L67.832,349.88L67.85,349.905L67.875,349.928L67.917,349.969L67.951,349.995L67.975,350.009L68.029,350.041L68.091,350.066L68.118,350.077L68.154,350.085L68.218,350.1L68.229,350.102L68.344,350.11L101.736,350.11L101.798,350.108L101.862,350.098L101.914,350.09L101.989,350.067L102.005,350.062L102.049,350.04L102.094,350.018L102.106,350.01L102.119,350.002L102.158,349.971L102.189,349.947L102.206,349.929L102.251,349.88L102.259,349.869L102.286,349.827L102.309,349.789L102.318,349.77L102.348,349.698L102.361,349.644L102.378,349.575L102.387,349.45L102.387,317.102L102.386,317.082L102.381,317.04L102.375,316.986L102.367,316.951L102.354,316.912L102.336,316.861L102.329,316.849L102.295,316.787L102.289,316.775L102.28,316.763L102.252,316.728L102.215,316.682L102.202,316.67L102.144,316.618L102.133,316.608L102.076,316.571L102.016,316.532L102.005,316.527L101.925,316.492L101.889,316.476L101.836,316.458L101.754,316.44L101.668,316.421L101.574,316.415L101.483,316.408" style="fill:none;fill-rule:nonzero;stroke:black;stroke-width:2px;"/>
                <path id="path1156" d="M219.882,245.701L186.76,245.701L186.686,245.705L186.658,245.706L186.611,245.715L186.536,245.73L186.521,245.732L186.462,245.753L186.409,245.771L186.39,245.782L186.321,245.818L186.296,245.831L186.257,245.86L186.205,245.899L186.197,245.908L186.145,245.961L186.125,245.982L186.117,245.991L186.099,246.019L186.058,246.079L186.058,246.08L186.029,246.143L186.013,246.177L186.007,246.192L186.004,246.207L185.988,246.272L185.982,246.293L185.979,246.336L185.974,246.399L185.974,278.756L185.979,278.791L185.986,278.857L185.989,278.878L186.001,278.923L186.016,278.974L186.021,278.987L186.049,279.048L186.061,279.074L186.068,279.086L186.083,279.107L186.122,279.162L186.125,279.167L186.168,279.211L186.195,279.239L186.217,279.257L186.23,279.268L186.274,279.295L186.313,279.321L186.332,279.329L186.394,279.356L186.407,279.362L186.432,279.37L186.458,279.376L186.524,279.391L186.54,279.394L186.59,279.398L186.656,279.403L219.985,279.403L220.051,279.398L220.107,279.394L220.118,279.391L220.209,279.37L220.247,279.355L220.309,279.33L220.31,279.33L220.329,279.32L220.368,279.295L220.412,279.267L220.423,279.257L220.474,279.212L220.487,279.201L220.52,279.162L220.523,279.159L220.558,279.107L220.579,279.077L220.592,279.048L220.62,278.987L220.622,278.983L220.632,278.955L220.64,278.923L220.655,278.857L220.658,278.845L220.662,278.791L220.668,278.725L220.668,246.399L220.663,246.336L220.662,246.315L220.659,246.293L220.654,246.272L220.637,246.207L220.634,246.192L220.592,246.094L220.583,246.079L220.571,246.058L220.543,246.019L220.508,245.972L220.429,245.893L220.389,245.861L220.386,245.859L220.32,245.818L220.289,245.798L220.251,245.782L220.18,245.751L220.151,245.741L220.105,245.731L220.031,245.714L220.021,245.711L219.955,245.706L219.882,245.701" style="fill:none;fill-rule:nonzero;stroke:black;stroke-width:2px;"/>
                <path id="path1186" d="M85.092,178.035L85.378,178.058" style="fill:none;fill-rule:nonzero;stroke:black;stroke-width:2px;"/>
                <path id="path1188" d="M85.378,177.242L85.378,178.058" style="fill:none;fill-rule:nonzero;stroke:black;stroke-width:2px;"/>
                <path id="path1190" d="M80.602,173.348L83.234,173.348" style="fill:none;fill-rule:nonzero;stroke:black;stroke-width:2px;"/>
                <path id="path1194" d="M104.483,178.058L104.483,177.242" style="fill:none;fill-rule:nonzero;stroke:black;stroke-width:2px;"/>
                <path id="path1196" d="M104.769,178.035L104.483,178.058" style="fill:none;fill-rule:nonzero;stroke:black;stroke-width:2px;"/>
                <path id="path1198" d="M104.483,178.058L104.769,178.035" style="fill:none;fill-rule:nonzero;stroke:black;stroke-width:2px;"/>
                <path id="path1200" d="M106.627,173.348L109.259,173.348" style="fill:none;fill-rule:nonzero;stroke:black;stroke-width:2px;"/>
                <g id="g28551">
                </g>
                <g id="text4630">
                </g>
                <g id="text4733">
                </g>
            </g>
            <g transform="matrix(0.885222,0,0,1,-75.2074,485.598)">
                <text x="-3.817px" y="143.348px" style="font-family:'LiberationSans-Bold', 'Liberation Sans', sans-serif;font-weight:700;font-size:16px;">NETWORK LISTENING</text>
                <text x="43.733px" y="159.871px" style="font-family:'LiberationSans-Bold', 'Liberation Sans', sans-serif;font-weight:700;font-size:16px;">ENABLED</text>
                <text x="77.729px" y="176.395px" style="font-family:'LiberationSans-Bold', 'Liberation Sans', sans-serif;font-weight:700;font-size:16px;">=</text>
                <text x="57.96px" y="192.918px" style="font-family:'LiberationSans-Bold', 'Liberation Sans', sans-serif;font-weight:700;font-size:16px;">BLINK</text>
                <g transform="matrix(16,0,0,16,161.202,209.442)">
                </g>
                <text x="3.601px" y="209.442px" style="font-family:'LiberationSans-Bold', 'Liberation Sans', sans-serif;font-weight:700;font-size:16px;">YELLOW<tspan x="71.718px 77.046px 86.53px 98.976px " y="209.442px 209.442px 209.442px 209.442px ">-TO-</tspan>GREEN</text>
            </g>
            <g transform="matrix(0.843004,0,0,1.0001,-81.3388,557.893)">
                <g transform="matrix(1.05008,-0,-0,0.999903,-4.77403,0.0173722)">
                    <path d="M219.529,172.942L223.54,166.651L216.1,167.217C218.389,167.791 220.103,170.654 219.529,172.942Z"/>
                    <path d="M218.96,169.394C212.213,172.91 204.257,175.032 196.481,176.051C179.34,178.295 162.478,180.078 145.064,179.11C121.348,177.791 107.425,178.179 97.411,157.147C96.087,154.366 95.327,144.14 95.327,140.658" style="fill:none;stroke:black;stroke-width:2px;stroke-miterlimit:1.5;"/>
                </g>
            </g>
            <g transform="matrix(0.839133,-0.0589413,-0.0521761,0.933274,-66.8488,581.588)">
                <path d="M223.324,148.636L227.76,153.658" style="fill:none;stroke:black;stroke-width:1.13px;stroke-miterlimit:1.5;"/>
            </g>
            <g transform="matrix(0.842808,-0.201208,0.21682,0.952632,-107.875,616.64)">
                <path d="M247.203,152.066L252.591,147.849" style="fill:none;stroke:black;stroke-width:1px;stroke-miterlimit:1.5;"/>
            </g>
            <g transform="matrix(0.86766,-0.0561098,-0.0496696,0.841301,-73.9475,596.931)">
                <path d="M234.234,152.316L232.049,146.136" style="fill:none;stroke:black;stroke-width:1.17px;stroke-miterlimit:1.5;"/>
            </g>
            <g transform="matrix(0.881582,0.0260559,0.0230652,0.834889,-87.6524,579.077)">
                <path d="M240.772,151.634L241.773,145.289" style="fill:none;stroke:black;stroke-width:1.06px;stroke-miterlimit:1.5;"/>
            </g>
            <g transform="matrix(-0.839144,0.0587468,0.0523456,-0.933262,317.414,854.656)">
                <path d="M223.324,148.636L227.76,153.658" style="fill:none;stroke:black;stroke-width:1.13px;stroke-miterlimit:1.5;"/>
            </g>
            <g transform="matrix(-0.842845,0.201013,-0.216647,-0.952682,358.447,819.614)">
                <path d="M247.203,152.066L252.591,147.849" style="fill:none;stroke:black;stroke-width:1px;stroke-miterlimit:1.5;"/>
            </g>
            <g transform="matrix(-0.867671,0.0559087,0.0498224,-0.841289,324.516,839.315)">
                <path d="M234.234,152.316L232.049,146.136" style="fill:none;stroke:black;stroke-width:1.17px;stroke-miterlimit:1.5;"/>
            </g>
            <g transform="matrix(-0.881577,-0.0262602,-0.0229136,-0.834894,338.217,857.172)">
                <path d="M240.772,151.634L241.773,145.289" style="fill:none;stroke:black;stroke-width:1.06px;stroke-miterlimit:1.5;"/>
            </g>
        </g>
    </g>
</svg>
