<?xml version="1.0" encoding="UTF-8" standalone="no"?>
<!DOCTYPE svg PUBLIC "-//W3C//DTD SVG 1.1//EN" "http://www.w3.org/Graphics/SVG/1.1/DTD/svg11.dtd">
<svg width="100%" height="100%" viewBox="0 0 325 301" version="1.1" xmlns="http://www.w3.org/2000/svg" xmlns:xlink="http://www.w3.org/1999/xlink" xml:space="preserve" xmlns:serif="http://www.serif.com/" style="fill-rule:evenodd;clip-rule:evenodd;stroke-linecap:round;stroke-linejoin:round;stroke-miterlimit:10;">
    <rect x="0" y="0" width="325" height="301" style="fill:white;"/>
    <rect x="0" y="0" width="325" height="301" style="fill:white;"/>
    <g transform="matrix(1,0,0,1,0,116)">
        <rect x="222" y="82" width="15" height="21" style="fill:white;"/>
    </g>
    <g transform="matrix(1,0,0,-1,-419,757)">
        <rect x="641" y="538" width="15" height="21" style="fill:none;stroke:black;stroke-width:2px;"/>
    </g>
    <g transform="matrix(0,1,-1,0,787,-570)">
        <path d="M571,488L865,488" style="fill:none;fill-rule:nonzero;stroke:black;stroke-width:2px;"/>
    </g>
    <g transform="matrix(1,0,0,-1,-419,930)">
        <path d="M531,635L718,635" style="fill:none;fill-rule:nonzero;stroke:black;stroke-width:2px;"/>
    </g>
    <g transform="matrix(1,0,0,1,0,20)">
        <rect x="157" y="132" width="38" height="17" style="fill:white;"/>
    </g>
    <g transform="matrix(1,0,0,-1,-419,661)">
        <rect x="576" y="492" width="38" height="17" style="fill:none;stroke:black;stroke-width:2px;"/>
    </g>
    <g transform="matrix(-0.609723,-0.792614,-0.792614,0.609723,374.429,197.366)">
        <path d="M161.7,142.84C161.081,142.676 160.579,143.062 160.579,143.703C160.579,144.343 161.081,144.995 161.7,145.16C162.319,145.324 162.821,144.938 162.821,144.297C162.821,143.657 162.319,143.005 161.7,142.84" style="fill:white;fill-rule:nonzero;stroke:black;stroke-width:1px;"/>
    </g>
    <g transform="matrix(-0.609723,-0.792614,-0.792614,0.609723,385.938,203.033)">
        <path d="M168.85,142.84C168.231,142.676 167.729,143.062 167.729,143.703C167.729,144.343 168.231,144.995 168.85,145.16C169.469,145.324 169.971,144.938 169.971,144.297C169.971,143.657 169.469,143.005 168.85,142.84" style="fill:white;fill-rule:nonzero;stroke:black;stroke-width:1px;"/>
    </g>
    <g transform="matrix(-0.609723,-0.792614,-0.792614,0.609723,397.448,208.7)">
        <path d="M176,142.84C175.381,142.676 174.879,143.062 174.879,143.703C174.879,144.343 175.381,144.995 176,145.16C176.619,145.324 177.121,144.938 177.121,144.297C177.121,143.657 176.619,143.005 176,142.84" style="fill:white;fill-rule:nonzero;stroke:black;stroke-width:1px;"/>
    </g>
    <g transform="matrix(-0.609723,-0.792614,-0.792614,0.609723,408.957,214.367)">
        <path d="M183.15,142.84C182.531,142.676 182.029,143.062 182.029,143.703C182.029,144.343 182.531,144.995 183.15,145.16C183.769,145.324 184.271,144.938 184.271,144.297C184.271,143.657 183.769,143.005 183.15,142.84" style="fill:white;fill-rule:nonzero;stroke:black;stroke-width:1px;"/>
    </g>
    <g transform="matrix(-0.609723,-0.792614,-0.792614,0.609723,420.467,220.034)">
        <path d="M190.3,142.84C189.681,142.676 189.179,143.062 189.179,143.703C189.179,144.343 189.681,144.995 190.3,145.16C190.919,145.324 191.421,144.938 191.421,144.297C191.421,143.657 190.919,143.005 190.3,142.84" style="fill:white;fill-rule:nonzero;stroke:black;stroke-width:1px;"/>
    </g>
    <g transform="matrix(-0.609723,-0.792614,-0.792614,0.609723,369.673,207.024)">
        <path d="M161.7,136.84C161.081,136.676 160.579,137.062 160.579,137.703C160.579,138.343 161.081,138.995 161.7,139.16C162.319,139.324 162.821,138.938 162.821,138.297C162.821,137.657 162.319,137.005 161.7,136.84" style="fill:white;fill-rule:nonzero;stroke:black;stroke-width:1px;"/>
    </g>
    <g transform="matrix(-0.609723,-0.792614,-0.792614,0.609723,381.183,212.691)">
        <path d="M168.85,136.84C168.231,136.676 167.729,137.062 167.729,137.703C167.729,138.343 168.231,138.995 168.85,139.16C169.469,139.324 169.971,138.938 169.971,138.297C169.971,137.657 169.469,137.005 168.85,136.84" style="fill:white;fill-rule:nonzero;stroke:black;stroke-width:1px;"/>
    </g>
    <g transform="matrix(-0.609723,-0.792614,-0.792614,0.609723,392.692,218.358)">
        <path d="M176,136.84C175.381,136.676 174.879,137.062 174.879,137.703C174.879,138.343 175.381,138.995 176,139.16C176.619,139.324 177.121,138.938 177.121,138.297C177.121,137.657 176.619,137.005 176,136.84" style="fill:white;fill-rule:nonzero;stroke:black;stroke-width:1px;"/>
    </g>
    <g transform="matrix(-0.609723,-0.792614,-0.792614,0.609723,404.202,224.026)">
        <path d="M183.15,136.84C182.531,136.676 182.029,137.062 182.029,137.703C182.029,138.343 182.531,138.995 183.15,139.16C183.769,139.324 184.271,138.938 184.271,138.297C184.271,137.657 183.769,137.005 183.15,136.84" style="fill:white;fill-rule:nonzero;stroke:black;stroke-width:1px;"/>
    </g>
    <g transform="matrix(-0.609723,-0.792614,-0.792614,0.609723,415.711,229.693)">
        <path d="M190.3,136.84C189.681,136.676 189.179,137.062 189.179,137.703C189.179,138.343 189.681,138.995 190.3,139.16C190.919,139.324 191.421,138.938 191.421,138.297C191.421,137.657 190.919,137.005 190.3,136.84" style="fill:white;fill-rule:nonzero;stroke:black;stroke-width:1px;"/>
    </g>
    <g transform="matrix(1,0,0,1,0,210)">
        <rect x="272" y="30" width="14" height="31" style="fill:white;"/>
    </g>
    <g transform="matrix(1,0,0,-1,-419,851)">
        <rect x="691" y="580" width="14" height="31" style="fill:none;stroke:black;stroke-width:2px;"/>
    </g>
    <g transform="matrix(1,0,0,-1,-419,831)">
        <path d="M699,585.5L743,585.5" style="fill:none;fill-rule:nonzero;stroke:black;stroke-width:1px;"/>
    </g>
    <g transform="matrix(1,0,0,-1,-419,846.269)">
        <path d="M699,593.135L743,593.135" style="fill:none;fill-rule:nonzero;stroke:black;stroke-width:1px;"/>
    </g>
    <g transform="matrix(1,0,0,-1,-419,860.404)">
        <path d="M699,600.202L743,600.202" style="fill:none;fill-rule:nonzero;stroke:black;stroke-width:1px;"/>
    </g>
    <g transform="matrix(1,0,0,-1,-419,873)">
        <path d="M699,606.5L743,606.5" style="fill:none;fill-rule:nonzero;stroke:black;stroke-width:1px;"/>
    </g>
    <g transform="matrix(1,0,0,1,0,267)">
        <rect x="138" y="1.5" width="44" height="31"/>
    </g>
    <g transform="matrix(1,0,0,-1,-419,908)">
        <rect x="557" y="608.5" width="44" height="31" style="fill:none;stroke:black;stroke-width:2px;"/>
    </g>
    <g transform="matrix(1,0,0,1,0,267)">
        <rect x="197" y="1.5" width="44" height="31"/>
    </g>
    <g transform="matrix(1,0,0,-1,-419,908)">
        <rect x="616" y="608.5" width="44" height="31" style="fill:none;stroke:black;stroke-width:2px;"/>
    </g>
    <g transform="matrix(0,1,-1,0,747.008,-297.992)">
        <path d="M554.008,604.008L569.992,604.008" style="fill:none;fill-rule:nonzero;stroke:black;stroke-width:1px;"/>
    </g>
    <g transform="matrix(0,1,-1,0,754.068,-305.052)">
        <path d="M561.068,604.008L577.052,604.008" style="fill:none;fill-rule:nonzero;stroke:black;stroke-width:1px;"/>
    </g>
    <g transform="matrix(0,1,-1,0,761.128,-312.112)">
        <path d="M568.128,604.008L584.112,604.008" style="fill:none;fill-rule:nonzero;stroke:black;stroke-width:1px;"/>
    </g>
    <g transform="matrix(0,1,-1,0,768.188,-319.172)">
        <path d="M575.188,604.008L591.172,604.008" style="fill:none;fill-rule:nonzero;stroke:black;stroke-width:1px;"/>
    </g>
    <g transform="matrix(0,1,-1,0,775.248,-326.232)">
        <path d="M582.248,604.008L598.232,604.008" style="fill:none;fill-rule:nonzero;stroke:black;stroke-width:1px;"/>
    </g>
    <g transform="matrix(0,1,-1,0,782.308,-333.292)">
        <path d="M589.308,604.008L605.292,604.008" style="fill:none;fill-rule:nonzero;stroke:black;stroke-width:1px;"/>
    </g>
    <g transform="matrix(0,1,-1,0,805.358,-356.342)">
        <path d="M612.358,604.008L628.342,604.008" style="fill:none;fill-rule:nonzero;stroke:black;stroke-width:1px;"/>
    </g>
    <g transform="matrix(0,1,-1,0,812.418,-363.402)">
        <path d="M619.418,604.008L635.402,604.008" style="fill:none;fill-rule:nonzero;stroke:black;stroke-width:1px;"/>
    </g>
    <g transform="matrix(0,1,-1,0,819.478,-370.462)">
        <path d="M626.478,604.008L642.462,604.008" style="fill:none;fill-rule:nonzero;stroke:black;stroke-width:1px;"/>
    </g>
    <g transform="matrix(0,1,-1,0,826.538,-377.522)">
        <path d="M633.538,604.008L649.522,604.008" style="fill:none;fill-rule:nonzero;stroke:black;stroke-width:1px;"/>
    </g>
    <g transform="matrix(0,1,-1,0,833.598,-384.582)">
        <path d="M640.598,604.008L656.582,604.008" style="fill:none;fill-rule:nonzero;stroke:black;stroke-width:1px;"/>
    </g>
    <g transform="matrix(0,1,-1,0,840.658,-391.642)">
        <path d="M647.658,604.008L663.642,604.008" style="fill:none;fill-rule:nonzero;stroke:black;stroke-width:1px;"/>
    </g>
    <g transform="matrix(1,0,0,1,0,-182.5)">
        <rect x="223.2" y="233.25" width="44" height="17" style="fill:white;"/>
    </g>
    <g transform="matrix(1,0,0,-1,-419,458.5)">
        <rect x="642.2" y="390.75" width="44" height="17" style="fill:none;stroke:black;stroke-width:2px;"/>
    </g>
    <g transform="matrix(-0.609702,-0.79263,-0.79263,0.609702,555.38,96.7733)">
        <path d="M227.408,237.69C226.789,237.526 226.287,237.912 226.287,238.552C226.287,239.193 226.789,239.845 227.408,240.01C228.027,240.174 228.529,239.788 228.529,239.148C228.529,238.507 228.027,237.855 227.408,237.69" style="fill:white;fill-rule:nonzero;stroke:black;stroke-width:1px;"/>
    </g>
    <g transform="matrix(-0.609702,-0.79263,-0.79263,0.609702,566.889,102.441)">
        <path d="M234.558,237.69C233.939,237.526 233.437,237.912 233.437,238.552C233.437,239.193 233.939,239.845 234.558,240.01C235.177,240.174 235.679,239.788 235.679,239.148C235.679,238.507 235.177,237.855 234.558,237.69" style="fill:white;fill-rule:nonzero;stroke:black;stroke-width:1px;"/>
    </g>
    <g transform="matrix(-0.609702,-0.79263,-0.79263,0.609702,578.398,108.108)">
        <path d="M241.708,237.69C241.089,237.526 240.587,237.912 240.587,238.552C240.587,239.193 241.089,239.845 241.708,240.01C242.327,240.174 242.829,239.788 242.829,239.148C242.829,238.507 242.327,237.855 241.708,237.69" style="fill:white;fill-rule:nonzero;stroke:black;stroke-width:1px;"/>
    </g>
    <g transform="matrix(-0.609702,-0.79263,-0.79263,0.609702,589.908,113.775)">
        <path d="M248.858,237.69C248.239,237.526 247.737,237.912 247.737,238.552C247.737,239.193 248.239,239.845 248.858,240.01C249.477,240.174 249.979,239.788 249.979,239.148C249.979,238.507 249.477,237.855 248.858,237.69" style="fill:white;fill-rule:nonzero;stroke:black;stroke-width:1px;"/>
    </g>
    <g transform="matrix(-0.609702,-0.79263,-0.79263,0.609702,601.417,119.443)">
        <path d="M256.008,237.69C255.389,237.526 254.887,237.912 254.887,238.552C254.887,239.193 255.389,239.845 256.008,240.01C256.627,240.174 257.129,239.788 257.129,239.148C257.129,238.507 256.627,237.855 256.008,237.69" style="fill:white;fill-rule:nonzero;stroke:black;stroke-width:1px;"/>
    </g>
    <g transform="matrix(-0.609702,-0.79263,-0.79263,0.609702,612.926,125.11)">
        <path d="M263.158,237.69C262.539,237.526 262.037,237.912 262.037,238.552C262.037,239.193 262.539,239.845 263.158,240.01C263.777,240.174 264.279,239.788 264.279,239.148C264.279,238.507 263.777,237.855 263.158,237.69" style="fill:white;fill-rule:nonzero;stroke:black;stroke-width:1px;"/>
    </g>
    <g transform="matrix(-0.609702,-0.79263,-0.79263,0.609702,559.937,87.5176)">
        <path d="M227.408,243.44C226.789,243.276 226.287,243.662 226.287,244.302C226.287,244.943 226.789,245.595 227.408,245.76C228.027,245.924 228.529,245.538 228.529,244.898C228.529,244.257 228.027,243.605 227.408,243.44" style="fill:white;fill-rule:nonzero;stroke:black;stroke-width:1px;"/>
    </g>
    <g transform="matrix(-0.609702,-0.79263,-0.79263,0.609702,571.447,93.1849)">
        <path d="M234.558,243.44C233.939,243.276 233.437,243.662 233.437,244.302C233.437,244.943 233.939,245.595 234.558,245.76C235.177,245.924 235.679,245.538 235.679,244.898C235.679,244.257 235.177,243.605 234.558,243.44" style="fill:white;fill-rule:nonzero;stroke:black;stroke-width:1px;"/>
    </g>
    <g transform="matrix(-0.609702,-0.79263,-0.79263,0.609702,582.956,98.8522)">
        <path d="M241.708,243.44C241.089,243.276 240.587,243.662 240.587,244.302C240.587,244.943 241.089,245.595 241.708,245.76C242.327,245.924 242.829,245.538 242.829,244.898C242.829,244.257 242.327,243.605 241.708,243.44" style="fill:white;fill-rule:nonzero;stroke:black;stroke-width:1px;"/>
    </g>
    <g transform="matrix(-0.609702,-0.79263,-0.79263,0.609702,594.465,104.519)">
        <path d="M248.858,243.44C248.239,243.276 247.737,243.662 247.737,244.302C247.737,244.943 248.239,245.595 248.858,245.76C249.477,245.924 249.979,245.538 249.979,244.898C249.979,244.257 249.477,243.605 248.858,243.44" style="fill:white;fill-rule:nonzero;stroke:black;stroke-width:1px;"/>
    </g>
    <g transform="matrix(-0.609702,-0.79263,-0.79263,0.609702,605.975,110.187)">
        <path d="M256.008,243.44C255.389,243.276 254.887,243.662 254.887,244.302C254.887,244.943 255.389,245.595 256.008,245.76C256.627,245.924 257.129,245.538 257.129,244.898C257.129,244.257 256.627,243.605 256.008,243.44" style="fill:white;fill-rule:nonzero;stroke:black;stroke-width:1px;"/>
    </g>
    <g transform="matrix(-0.609702,-0.79263,-0.79263,0.609702,617.484,115.854)">
        <path d="M263.158,243.44C262.539,243.276 262.037,243.662 262.037,244.302C262.037,244.943 262.539,245.595 263.158,245.76C263.777,245.924 264.279,245.538 264.279,244.898C264.279,244.257 263.777,243.605 263.158,243.44" style="fill:white;fill-rule:nonzero;stroke:black;stroke-width:1px;"/>
    </g>
    <g transform="matrix(1,0,0,-1,-419,543)">
        <path d="M686.5,441.5L730.5,441.5" style="fill:none;fill-rule:nonzero;stroke:black;stroke-width:1px;"/>
    </g>
    <g transform="matrix(1,0,0,-1,-419,550.303)">
        <path d="M686.5,445.152L730.5,445.152" style="fill:none;fill-rule:nonzero;stroke:black;stroke-width:1px;"/>
    </g>
    <g transform="matrix(1,0,0,-1,-419,557.606)">
        <path d="M686.5,448.803L730.5,448.803" style="fill:none;fill-rule:nonzero;stroke:black;stroke-width:1px;"/>
    </g>
    <g transform="matrix(1,0,0,-1,-419,564.909)">
        <path d="M686.5,452.455L730.5,452.455" style="fill:none;fill-rule:nonzero;stroke:black;stroke-width:1px;"/>
    </g>
    <g transform="matrix(1,0,0,-1,-419,572.212)">
        <path d="M686.5,456.106L730.5,456.106" style="fill:none;fill-rule:nonzero;stroke:black;stroke-width:1px;"/>
    </g>
    <g transform="matrix(1,0,0,-1,-419,579.515)">
        <path d="M686.5,459.758L730.5,459.758" style="fill:none;fill-rule:nonzero;stroke:black;stroke-width:1px;"/>
    </g>
    <g transform="matrix(1,0,0,-1,-419,586.818)">
        <path d="M686.5,463.409L730.5,463.409" style="fill:none;fill-rule:nonzero;stroke:black;stroke-width:1px;"/>
    </g>
    <g transform="matrix(1,0,0,-1,-419,594.121)">
        <path d="M686.5,467.061L730.5,467.061" style="fill:none;fill-rule:nonzero;stroke:black;stroke-width:1px;"/>
    </g>
    <g transform="matrix(1,0,0,-1,-419,601.424)">
        <path d="M686.5,470.712L730.5,470.712" style="fill:none;fill-rule:nonzero;stroke:black;stroke-width:1px;"/>
    </g>
    <g transform="matrix(1,0,0,-1,-419,608.727)">
        <path d="M686.5,474.364L730.5,474.364" style="fill:none;fill-rule:nonzero;stroke:black;stroke-width:1px;"/>
    </g>
    <g transform="matrix(1,0,0,-1,-419,616.03)">
        <path d="M686.5,478.015L730.5,478.015" style="fill:none;fill-rule:nonzero;stroke:black;stroke-width:1px;"/>
    </g>
    <g transform="matrix(1,0,0,-1,-419,623.333)">
        <path d="M686.5,481.667L730.5,481.667" style="fill:none;fill-rule:nonzero;stroke:black;stroke-width:1px;"/>
    </g>
    <g transform="matrix(1,0,0,-1,-419,630.636)">
        <path d="M686.5,485.318L730.5,485.318" style="fill:none;fill-rule:nonzero;stroke:black;stroke-width:1px;"/>
    </g>
    <g transform="matrix(1,0,0,-1,-419,637.939)">
        <path d="M686.5,488.97L730.5,488.97" style="fill:none;fill-rule:nonzero;stroke:black;stroke-width:1px;"/>
    </g>
    <g transform="matrix(1,0,0,-1,-419,645.242)">
        <path d="M686.5,492.621L730.5,492.621" style="fill:none;fill-rule:nonzero;stroke:black;stroke-width:1px;"/>
    </g>
    <g transform="matrix(1,0,0,-1,-419,652.545)">
        <path d="M686.5,496.273L730.5,496.273" style="fill:none;fill-rule:nonzero;stroke:black;stroke-width:1px;"/>
    </g>
    <g transform="matrix(1,0,0,-1,-419,659.848)">
        <path d="M686.5,499.924L730.5,499.924" style="fill:none;fill-rule:nonzero;stroke:black;stroke-width:1px;"/>
    </g>
    <g transform="matrix(1,0,0,-1,-419,667.152)">
        <path d="M686.5,503.576L730.5,503.576" style="fill:none;fill-rule:nonzero;stroke:black;stroke-width:1px;"/>
    </g>
    <g transform="matrix(1,0,0,-1,-419,674.455)">
        <path d="M686.5,507.227L730.5,507.227" style="fill:none;fill-rule:nonzero;stroke:black;stroke-width:1px;"/>
    </g>
    <g transform="matrix(1,0,0,-1,-419,681.758)">
        <path d="M686.5,510.879L730.5,510.879" style="fill:none;fill-rule:nonzero;stroke:black;stroke-width:1px;"/>
    </g>
    <g transform="matrix(1,0,0,-1,-419,689.061)">
        <path d="M686.5,514.53L730.5,514.53" style="fill:none;fill-rule:nonzero;stroke:black;stroke-width:1px;"/>
    </g>
    <g transform="matrix(1,0,0,-1,-419,696.364)">
        <path d="M686.5,518.182L730.5,518.182" style="fill:none;fill-rule:nonzero;stroke:black;stroke-width:1px;"/>
    </g>
    <g transform="matrix(1,0,0,-1,-419,703.667)">
        <path d="M686.5,521.833L730.5,521.833" style="fill:none;fill-rule:nonzero;stroke:black;stroke-width:1px;"/>
    </g>
    <g transform="matrix(1,0,0,-1,-419,710.97)">
        <path d="M686.5,525.485L730.5,525.485" style="fill:none;fill-rule:nonzero;stroke:black;stroke-width:1px;"/>
    </g>
    <g transform="matrix(1,0,0,-1,-419,718.273)">
        <path d="M686.5,529.136L730.5,529.136" style="fill:none;fill-rule:nonzero;stroke:black;stroke-width:1px;"/>
    </g>
    <g transform="matrix(1,0,0,-1,-419,725.576)">
        <path d="M686.5,532.788L730.5,532.788" style="fill:none;fill-rule:nonzero;stroke:black;stroke-width:1px;"/>
    </g>
    <g transform="matrix(1,0,0,-1,-419,732.879)">
        <path d="M686.5,536.439L730.5,536.439" style="fill:none;fill-rule:nonzero;stroke:black;stroke-width:1px;"/>
    </g>
    <g transform="matrix(1,0,0,-1,-419,740.182)">
        <path d="M686.5,540.091L730.5,540.091" style="fill:none;fill-rule:nonzero;stroke:black;stroke-width:1px;"/>
    </g>
    <g transform="matrix(1,0,0,-1,-419,747.485)">
        <path d="M686.5,543.742L730.5,543.742" style="fill:none;fill-rule:nonzero;stroke:black;stroke-width:1px;"/>
    </g>
    <g transform="matrix(1,0,0,-1,-419,754.788)">
        <path d="M686.5,547.394L730.5,547.394" style="fill:none;fill-rule:nonzero;stroke:black;stroke-width:1px;"/>
    </g>
    <g transform="matrix(1,0,0,-1,-419,762.091)">
        <path d="M686.5,551.045L730.5,551.045" style="fill:none;fill-rule:nonzero;stroke:black;stroke-width:1px;"/>
    </g>
    <g transform="matrix(1,0,0,-1,-419,769.394)">
        <path d="M686.5,554.697L730.5,554.697" style="fill:none;fill-rule:nonzero;stroke:black;stroke-width:1px;"/>
    </g>
    <g transform="matrix(1,0,0,-1,-419,776.697)">
        <path d="M686.5,558.348L730.5,558.348" style="fill:none;fill-rule:nonzero;stroke:black;stroke-width:1px;"/>
    </g>
    <g transform="matrix(1,0,0,-1,-419,784)">
        <path d="M686.5,562L730.5,562" style="fill:none;fill-rule:nonzero;stroke:black;stroke-width:1px;"/>
    </g>
    <g transform="matrix(1,0,0,1,0,22)">
        <rect x="272" y="73" width="15" height="133" style="fill:white;"/>
    </g>
    <g transform="matrix(1,0,0,-1,-419,663)">
        <rect x="691" y="435" width="15" height="133" style="fill:none;stroke:black;stroke-width:2px;"/>
    </g>
    <g transform="matrix(1,0,0,-1,-419,745.6)">
        <path d="M643.908,542.8L653.092,542.8" style="fill:none;fill-rule:nonzero;stroke:black;stroke-width:1px;"/>
    </g>
    <g transform="matrix(1,0,0,-1,-419,753.1)">
        <path d="M643.908,546.55L653.092,546.55" style="fill:none;fill-rule:nonzero;stroke:black;stroke-width:1px;"/>
    </g>
    <g transform="matrix(1,0,0,-1,-419,760.6)">
        <path d="M643.908,550.3L653.092,550.3" style="fill:none;fill-rule:nonzero;stroke:black;stroke-width:1px;"/>
    </g>
    <g transform="matrix(1,0,0,-1,-419,768.1)">
        <path d="M643.908,554.05L653.092,554.05" style="fill:none;fill-rule:nonzero;stroke:black;stroke-width:1px;"/>
    </g>
    <g transform="matrix(1,0,0,1,0,104.6)">
        <rect x="231.493" y="96.9" width="2.6" height="2.6" style="fill:white;"/>
    </g>
    <g transform="matrix(1,0,0,-1,-419,745.6)">
        <rect x="650.493" y="541.5" width="2.6" height="2.6" style="fill:none;stroke:black;stroke-width:1px;"/>
    </g>
    <g transform="matrix(1,0,0,1,0,112.1)">
        <rect x="231.53" y="93.15" width="2.6" height="2.6" style="fill:white;"/>
    </g>
    <g transform="matrix(1,0,0,-1,-419,753.1)">
        <rect x="650.53" y="545.25" width="2.6" height="2.6" style="fill:none;stroke:black;stroke-width:1px;"/>
    </g>
    <g transform="matrix(1,0,0,1,0,119.6)">
        <rect x="224.95" y="89.4" width="2.6" height="2.6" style="fill:white;"/>
    </g>
    <g transform="matrix(1,0,0,-1,-419,760.6)">
        <rect x="643.95" y="549" width="2.6" height="2.6" style="fill:none;stroke:black;stroke-width:1px;"/>
    </g>
    <g transform="matrix(1,0,0,1,0,127.1)">
        <rect x="231.589" y="85.65" width="2.6" height="2.6" style="fill:white;"/>
    </g>
    <g transform="matrix(1,0,0,-1,-419,768.1)">
        <rect x="650.589" y="552.75" width="2.6" height="2.6" style="fill:none;stroke:black;stroke-width:1px;"/>
    </g>
    <text x="230.311px" y="80.75px" style="font-family:'LiberationSans', 'Liberation Sans', sans-serif;font-size:12px;">JT<tspan x="242.751px 250.754px " y="80.75px 80.75px ">AG</tspan></text>
    <g transform="matrix(0,1,-1,0,0,0)">
        <text x="116.854px" y="-255.951px" style="font-family:'LiberationSans', 'Liberation Sans', sans-serif;font-size:12px;">FLOPPY<tspan x="163.987px 167.321px " y="-255.951px -255.951px "> D</tspan>RIVE</text>
    </g>
    <text x="219.498px" y="234.348px" style="font-family:'LiberationSans', 'Liberation Sans', sans-serif;font-size:12px;">DIP</text>
    <g transform="matrix(0.707107,0.707107,-0.707107,0.707107,164.455,-635.56)">
        <path d="M648.5,530.283C662.986,530.283 674.729,542.026 674.729,556.512C674.729,570.998 662.986,582.741 648.5,582.741C634.014,582.741 622.271,570.998 622.271,556.512C622.271,542.026 634.014,530.283 648.5,530.283" style="fill:none;fill-rule:nonzero;stroke:black;stroke-width:1px;"/>
    </g>
    <g transform="matrix(0.714379,0.699759,-0.699759,0.714379,71.0569,-539.617)">
        <path d="M489.555,430.214C528.365,431.017 559.826,463.135 559.826,501.953C559.826,540.771 528.365,571.588 489.555,570.786C450.746,569.983 419.285,537.865 419.285,499.047C419.285,460.229 450.746,429.412 489.555,430.214" style="fill:none;fill-rule:nonzero;stroke:black;stroke-width:1px;"/>
    </g>
    <g transform="matrix(1,0,0,1,0,24.9231)">
        <rect x="36.51" y="89.38" width="68.09" height="97.317" style="fill:white;"/>
    </g>
    <g transform="matrix(1,0,0,-1,-419,665.923)">
        <rect x="455.51" y="454.303" width="68.09" height="97.317" style="fill:none;stroke:black;stroke-width:2px;"/>
    </g>
    <g transform="matrix(1,0,0,-1,-419,613.094)">
        <path d="M468.71,476.547L510.4,476.547" style="fill:none;fill-rule:nonzero;stroke:black;stroke-width:2px;"/>
    </g>
    <g transform="matrix(1,0,0,-1,-419,647.85)">
        <path d="M468.71,493.925L510.4,493.925" style="fill:none;fill-rule:nonzero;stroke:black;stroke-width:2px;"/>
    </g>
    <g transform="matrix(1,0,0,-1,-419,682.606)">
        <path d="M468.71,511.303L510.4,511.303" style="fill:none;fill-rule:nonzero;stroke:black;stroke-width:2px;"/>
    </g>
    <g transform="matrix(1,0,0,-1,-419,717.362)">
        <path d="M468.71,528.681L510.4,528.681" style="fill:none;fill-rule:nonzero;stroke:black;stroke-width:2px;"/>
    </g>
    <g transform="matrix(1,0,0,1,0,41.6062)">
        <rect x="49.902" y="123.672" width="11.802" height="12.049" style="fill:white;"/>
    </g>
    <g transform="matrix(1,0,0,-1,-419,682.606)">
        <rect x="468.901" y="505.279" width="11.802" height="12.049" style="fill:none;stroke:black;stroke-width:2px;"/>
    </g>
    <g transform="matrix(1,0,0,1,0,76.3624)">
        <rect x="80.036" y="106.294" width="11.802" height="12.049" style="fill:white;"/>
    </g>
    <g transform="matrix(1,0,0,-1,-419,717.362)">
        <rect x="499.036" y="522.657" width="11.802" height="12.049" style="fill:none;stroke:black;stroke-width:2px;"/>
    </g>
    <text x="94.433px" y="193.485px" style="font-family:'LiberationSans', 'Liberation Sans', sans-serif;font-size:12px;">1</text>
    <text x="94.433px" y="175.607px" style="font-family:'LiberationSans', 'Liberation Sans', sans-serif;font-size:12px;">2</text>
    <text x="94.433px" y="157.485px" style="font-family:'LiberationSans', 'Liberation Sans', sans-serif;font-size:12px;">3</text>
    <text x="94.433px" y="138.607px" style="font-family:'LiberationSans', 'Liberation Sans', sans-serif;font-size:12px;">4</text>
    <text x="38.704px" y="209.438px" style="font-family:'LiberationSans', 'Liberation Sans', sans-serif;font-size:12px;">ON</text>
    <g transform="matrix(1,0,0,1,0,6.84999)">
        <rect x="80.004" y="141.051" width="11.802" height="12.049" style="fill:white;"/>
    </g>
    <g transform="matrix(1,0,0,-1,-419,647.85)">
        <rect x="499.004" y="487.901" width="11.802" height="12.049" style="fill:none;stroke:black;stroke-width:2px;"/>
    </g>
    <g transform="matrix(1,0,0,1,0,-27.9062)">
        <rect x="80.038" y="158.429" width="11.802" height="12.049" style="fill:white;"/>
    </g>
    <g transform="matrix(1,0,0,-1,-419,613.094)">
        <rect x="499.038" y="470.522" width="11.802" height="12.049" style="fill:none;stroke:black;stroke-width:2px;"/>
    </g>
    <g transform="matrix(-0.816248,-0.577702,0.577702,-0.816248,377.21,886.254)">
        <path d="M516.096,486.5L670.154,486.5" style="fill:none;fill-rule:nonzero;stroke:black;stroke-width:1px;stroke-dasharray:1,4;"/>
    </g>
    <g transform="matrix(-0.997581,-0.0695079,0.0695079,-0.997581,675.721,852.925)">
        <path d="M487.786,577.417L648.444,577.417" style="fill:none;fill-rule:nonzero;stroke:black;stroke-width:1px;stroke-dasharray:1,4;"/>
    </g>
</svg>
